<?xml version="1.0" encoding="utf-8"?>
<!-- Generator: Adobe Illustrator 23.0.4, SVG Export Plug-In . SVG Version: 6.00 Build 0)  -->
<svg version="1.1" id="Layer_1" xmlns="http://www.w3.org/2000/svg" xmlns:xlink="http://www.w3.org/1999/xlink" x="0px" y="0px"
	 viewBox="0 0 1760.2 342.3" style="enable-background:new 0 0 1760.2 342.3;" xml:space="preserve">
<style type="text/css">
	.st0{enable-background:new    ;}
	.st1{fill:#0071BC;}
	.st2{opacity:0.14;}
</style>
<title>Asset 7</title>
<g class="st0">
	<path d="M51.6,31.4c0,11.6-8.2,18.4-22,18.4H12.2V69h-1.6V13h19C43.4,13,51.6,19.8,51.6,31.4z M50,31.4c0-10.7-7.1-16.9-20.2-16.9
		H12.2v33.8h17.5C42.9,48.3,50,42.1,50,31.4z"/>
	<path d="M100.7,27.6V69h-1.6V58c-2.4,6.9-8.2,11.2-16.6,11.2c-10.5,0-17-6-17-17.2V27.6h1.6V52c0,10.2,5.6,15.7,15.3,15.7
		c10.4,0,16.7-7.1,16.7-17.6V27.6H100.7z"/>
	<path d="M159.3,48.3c0,12.2-8.7,21-20.1,21c-8.6,0-15.7-5-18.5-12.9V69h-1.6V9.6h1.6v30.6c2.8-7.8,9.8-12.8,18.5-12.8
		C150.6,27.4,159.3,36,159.3,48.3z M157.7,48.3c0-11.4-7.9-19.4-18.5-19.4c-10.6,0-18.5,7.9-18.5,19.4s7.9,19.4,18.5,19.4
		C149.8,67.7,157.7,59.7,157.7,48.3z"/>
	<path d="M172.8,9.6h1.6V69h-1.6V9.6z"/>
	<path d="M191.5,14.1c0-1.1,1-2.1,2.1-2.1c1.1,0,2.1,1,2.1,2.1c0,1.1-1,2.1-2.1,2.1C192.5,16.2,191.5,15.2,191.5,14.1z M192.8,27.6
		h1.6V69h-1.6V27.6z"/>
	<path d="M207.9,48.3c0-12.3,8.6-20.9,20.3-20.9c5.9,0,11.4,2.2,14.9,6.7l-1.1,1.2c-3.2-4.3-8.2-6.4-13.8-6.4
		c-10.8,0-18.7,7.9-18.7,19.4c0,11.5,7.9,19.4,18.7,19.4c5.5,0,10.6-2.1,13.8-6.4l1.1,1.2c-3.5,4.5-9,6.7-14.9,6.7
		C216.5,69.2,207.9,60.6,207.9,48.3z"/>
</g>
<g class="st0">
	<path d="M290.2,14.5h-20.8V13h43.2v1.5h-20.8V69h-1.6V14.5z"/>
</g>
<g class="st0">
	<path d="M339.3,27.4V29h-0.5c-9.9,0-15.8,6.8-15.8,17.8V69h-1.6V27.6h1.6v10.7C325.4,31.4,331,27.4,339.3,27.4z"/>
</g>
<g class="st0">
	<path d="M379.7,41.9V69h-1.6v-8.8c-2.6,5.5-8,9-15.8,9c-9.3,0-14.6-4.6-14.6-11.6c0-5.9,3.7-11.1,14.7-11.1h15.7v-4.6
		c0-8.6-4.6-13-13.1-13c-6.2,0-11.4,2.3-15,5.8l-1.1-1.1c3.9-3.8,9.8-6.2,16.1-6.2C374.5,27.4,379.7,32.4,379.7,41.9z M378.1,57.2
		V48h-15.8c-9.4,0-13,4-13,9.5c0,6.2,4.8,10.2,13,10.2C370.3,67.7,375.4,63.9,378.1,57.2z"/>
	<path d="M433.1,44.6V69h-1.6V44.6c0-10.2-5.5-15.7-14.9-15.7c-10.9,0-17.4,7.1-17.4,17.6V69h-1.6V27.6h1.6v11
		c2.5-6.9,8.6-11.3,17.4-11.3C426.7,27.4,433.1,33.4,433.1,44.6z"/>
	<path d="M444.4,63.5l1-1.3c3,2.9,8.6,5.4,15.2,5.4c9.8,0,13.8-3.8,13.8-9.2c0-13.8-28.3-4.4-28.3-20.5c0-5.5,4.4-10.6,14.6-10.6
		c5.1,0,10.6,1.7,13.7,4.2l-1,1.3c-3.3-2.6-8.1-4-12.7-4c-9.1,0-13,4-13,9.1c0,14.2,28.2,4.9,28.2,20.5c0,6.2-5,10.7-15.4,10.7
		C453.8,69.2,447.5,66.8,444.4,63.5z"/>
	<path d="M528.2,48.3c0,12.2-8.7,20.9-20.1,20.9c-8.6,0-15.7-5-18.5-12.8v28.1h-1.6V27.6h1.6v12.6c2.8-7.8,9.8-12.9,18.5-12.9
		C519.5,27.4,528.2,36.1,528.2,48.3z M526.6,48.3c0-11.4-7.9-19.4-18.5-19.4c-10.6,0-18.5,8-18.5,19.4s7.9,19.4,18.5,19.4
		C518.7,67.7,526.6,59.8,526.6,48.3z"/>
	<path d="M536.9,48.3c0-12.2,8.6-20.9,20.1-20.9c11.5,0,20.1,8.6,20.1,20.9s-8.6,21-20.1,21C545.4,69.2,536.9,60.5,536.9,48.3z
		 M575.4,48.3c0-11.4-7.9-19.4-18.5-19.4c-10.6,0-18.5,7.9-18.5,19.4s7.9,19.4,18.5,19.4C567.5,67.7,575.4,59.7,575.4,48.3z"/>
</g>
<g class="st0">
	<path d="M609.9,27.4V29h-0.5c-9.9,0-15.8,6.8-15.8,17.8V69h-1.6V27.6h1.6v10.7C596,31.4,601.6,27.4,609.9,27.4z"/>
</g>
<g class="st0">
	<path d="M643,66.3c-1.9,2-5.1,3-8.1,3c-6.6,0-10-4.1-10-10.2V29.1h-8v-1.5h8v-9h1.6v9h14v1.5h-14v29.5c0,5.8,2.9,9,8.5,9
		c2.6,0,5.1-0.9,6.9-2.6L643,66.3z"/>
	<path d="M683.3,41.9V69h-1.6v-8.8c-2.6,5.5-8,9-15.8,9c-9.3,0-14.6-4.6-14.6-11.6c0-5.9,3.7-11.1,14.7-11.1h15.7v-4.6
		c0-8.6-4.6-13-13.1-13c-6.2,0-11.4,2.3-15,5.8l-1.1-1.1c3.9-3.8,9.8-6.2,16.1-6.2C678.1,27.4,683.3,32.4,683.3,41.9z M681.7,57.2
		V48H666c-9.4,0-13,4-13,9.5c0,6.2,4.8,10.2,13,10.2C674,67.7,679,63.9,681.7,57.2z"/>
	<path d="M720,66.3c-1.9,2-5.1,3-8.1,3c-6.6,0-10-4.1-10-10.2V29.1h-8v-1.5h8v-9h1.6v9h14v1.5h-14v29.5c0,5.8,2.9,9,8.5,9
		c2.6,0,5.1-0.9,6.9-2.6L720,66.3z"/>
	<path d="M731,14.1c0-1.1,1-2.1,2.1-2.1c1.1,0,2.1,1,2.1,2.1c0,1.1-1,2.1-2.1,2.1C732,16.2,731,15.2,731,14.1z M732.3,27.6h1.6V69
		h-1.6V27.6z"/>
	<path d="M747.4,48.3c0-12.2,8.6-20.9,20.1-20.9c11.5,0,20.1,8.6,20.1,20.9s-8.6,21-20.1,21C756,69.2,747.4,60.5,747.4,48.3z
		 M786,48.3c0-11.4-7.9-19.4-18.5-19.4c-10.6,0-18.5,7.9-18.5,19.4s7.9,19.4,18.5,19.4C778.1,67.7,786,59.7,786,48.3z"/>
	<path d="M836.6,44.6V69H835V44.6c0-10.2-5.5-15.7-14.9-15.7c-10.9,0-17.4,7.1-17.4,17.6V69h-1.6V27.6h1.6v11
		c2.5-6.9,8.6-11.3,17.4-11.3C830.2,27.4,836.6,33.4,836.6,44.6z"/>
</g>
<g class="st0">
	<path d="M4.6,157.3l1.1-1c3.5,4.2,10.6,7.4,18.5,7.4c12.2,0,17.6-5.6,17.6-12.5c0-18.8-35.6-7.8-35.6-28.4
		c0-7.4,5.6-14.1,18.7-14.1c6,0,12.2,2,16.2,5.1l-0.9,1.3c-4.5-3.3-10.2-4.9-15.3-4.9c-11.8,0-17.2,5.7-17.2,12.6
		c0,18.9,35.6,8.1,35.6,28.3c0,7.4-5.8,14-19.1,14C16.2,165.2,8.4,162,4.6,157.3z"/>
	<path d="M76,162.3c-1.9,2-5.1,3-8.1,3c-6.6,0-10-4.1-10-10.2v-29.9h-8v-1.5h8v-9h1.6v9h14v1.5h-14v29.5c0,5.8,2.9,9,8.5,9
		c2.6,0,5.1-0.9,6.9-2.6L76,162.3z"/>
	<path d="M116.3,137.9V165h-1.6v-8.8c-2.6,5.5-8,9-15.8,9c-9.3,0-14.6-4.6-14.6-11.6c0-5.9,3.7-11.1,14.7-11.1h15.7v-4.6
		c0-8.6-4.6-13-13.1-13c-6.2,0-11.4,2.3-15,5.8l-1.1-1.1c3.9-3.8,9.8-6.2,16.1-6.2C111.1,123.4,116.3,128.4,116.3,137.9z
		 M114.7,153.2V144H99c-9.4,0-13,4-13,9.5c0,6.2,4.8,10.2,13,10.2C107,163.7,112,159.9,114.7,153.2z"/>
	<path d="M153,162.3c-1.9,2-5.1,3-8.1,3c-6.6,0-10-4.1-10-10.2v-29.9h-8v-1.5h8v-9h1.6v9h14v1.5h-14v29.5c0,5.8,2.9,9,8.5,9
		c2.6,0,5.1-0.9,6.9-2.6L153,162.3z"/>
	<path d="M164,110.1c0-1.1,1-2.1,2.1-2.1c1.1,0,2.1,1,2.1,2.1c0,1.1-1,2.1-2.1,2.1C165,112.2,164,111.2,164,110.1z M165.3,123.6h1.6
		V165h-1.6V123.6z"/>
	<path d="M178.6,159.5l1-1.3c3,2.9,8.6,5.4,15.2,5.4c9.8,0,13.8-3.8,13.8-9.2c0-13.8-28.3-4.4-28.3-20.5c0-5.5,4.4-10.6,14.6-10.6
		c5.1,0,10.6,1.7,13.7,4.2l-1,1.3c-3.3-2.6-8.1-4-12.7-4c-9.1,0-13,4-13,9.1c0,14.2,28.2,4.9,28.2,20.5c0,6.2-5,10.7-15.4,10.7
		C188.1,165.2,181.8,162.8,178.6,159.5z"/>
	<path d="M241,162.3c-1.9,2-5.1,3-8.1,3c-6.6,0-10-4.1-10-10.2v-29.9h-8v-1.5h8v-9h1.6v9h14v1.5h-14v29.5c0,5.8,2.9,9,8.5,9
		c2.6,0,5.1-0.9,6.9-2.6L241,162.3z"/>
	<path d="M252.1,110.1c0-1.1,1-2.1,2.1-2.1c1.1,0,2.1,1,2.1,2.1c0,1.1-1,2.1-2.1,2.1C253,112.2,252.1,111.2,252.1,110.1z
		 M253.4,123.6h1.6V165h-1.6V123.6z"/>
	<path d="M268.5,144.3c0-12.3,8.6-20.9,20.3-20.9c5.9,0,11.4,2.2,14.9,6.7l-1.1,1.2c-3.2-4.3-8.2-6.4-13.8-6.4
		c-10.8,0-18.7,7.9-18.7,19.4c0,11.5,7.9,19.4,18.7,19.4c5.5,0,10.6-2.1,13.8-6.4l1.1,1.2c-3.5,4.5-9,6.7-14.9,6.7
		C277,165.2,268.5,156.6,268.5,144.3z"/>
	<path d="M310.3,159.5l1-1.3c3,2.9,8.6,5.4,15.2,5.4c9.8,0,13.8-3.8,13.8-9.2c0-13.8-28.3-4.4-28.3-20.5c0-5.5,4.4-10.6,14.6-10.6
		c5.1,0,10.6,1.7,13.7,4.2l-1,1.3c-3.3-2.6-8.1-4-12.7-4c-9.1,0-13,4-13,9.1c0,14.2,28.2,4.9,28.2,20.5c0,6.2-5,10.7-15.4,10.7
		C319.8,165.2,313.4,162.8,310.3,159.5z"/>
	<path d="M372.7,110.1c0-1.1,1-2.1,2.1-2.1c1.1,0,2.1,1,2.1,2.1c0,1.1-1,2.1-2.1,2.1C373.7,112.2,372.7,111.2,372.7,110.1z
		 M374,123.6h1.6V165H374V123.6z"/>
	<path d="M429.5,140.6V165h-1.6v-24.4c0-10.2-5.5-15.7-14.9-15.7c-10.9,0-17.4,7.1-17.4,17.6V165H394v-41.4h1.6v11
		c2.5-6.9,8.6-11.3,17.4-11.3C423.1,123.4,429.5,129.4,429.5,140.6z"/>
	<path d="M486.2,162.3c-1.9,2-5.1,3-8.1,3c-6.6,0-10-4.1-10-10.2v-29.9h-8v-1.5h8v-9h1.6v9h14v1.5h-14v29.5c0,5.8,2.9,9,8.5,9
		c2.6,0,5.1-0.9,6.9-2.6L486.2,162.3z"/>
</g>
<g class="st0">
	<path d="M539.1,140.6V165h-1.6v-24.4c0-10.2-5.5-15.7-14.9-15.7c-10.9,0-17.4,7.1-17.4,17.6V165h-1.6v-59.4h1.6v29
		c2.5-6.9,8.6-11.3,17.4-11.3C532.7,123.4,539.1,129.4,539.1,140.6z"/>
</g>
<g class="st0">
	<path d="M590.7,144.3h-36.8c0,11.4,8.2,19.4,19.1,19.4c5.5,0,10.8-2.1,14.1-6.4l1.1,1.1c-3.7,4.5-9.3,6.8-15.2,6.8
		c-11.9,0-20.6-8.7-20.6-21s8.2-20.9,19.1-20.9c10.9,0,19.2,8.5,19.2,20.5V144.3z M553.9,142.8h35.3c-0.6-10.2-7.9-17.8-17.7-17.8
		S554.5,132.5,553.9,142.8z"/>
</g>
<g class="st0">
	<path class="st1" d="M10.2,237.5V205h1.6v32.5c0,15,7.3,22.2,20,22.2s20-7.3,20-22.2V205h1.6v32.6c0,15.8-8.2,23.7-21.6,23.7
		S10.2,253.4,10.2,237.5z"/>
	<path class="st1" d="M108.2,236.6V261h-1.6v-24.4c0-10.2-5.5-15.7-14.9-15.7c-10.9,0-17.4,7.1-17.4,17.6V261h-1.6v-41.4h1.6v11
		c2.5-6.9,8.6-11.3,17.4-11.3C101.8,219.4,108.2,225.4,108.2,236.6z"/>
	<path class="st1" d="M124.9,206.1c0-1.1,1-2.1,2.1-2.1c1.1,0,2.1,1,2.1,2.1c0,1.1-1,2.1-2.1,2.1
		C125.8,208.2,124.9,207.2,124.9,206.1z M126.2,219.6h1.6V261h-1.6V219.6z"/>
</g>
<g class="st0">
	<path class="st1" d="M165.4,258.3c-1.9,2-5.1,3-8.1,3c-6.6,0-10-4.1-10-10.2v-29.9h-8v-1.5h8v-9h1.6v9h14v1.5h-14v29.5
		c0,5.8,2.9,9,8.5,9c2.6,0,5.1-0.9,6.9-2.6L165.4,258.3z"/>
</g>
<g class="st0">
	<path class="st1" d="M209.8,240.3H173c0,11.4,8.2,19.4,19.1,19.4c5.5,0,10.8-2.1,14.1-6.4l1.1,1.1c-3.7,4.5-9.3,6.8-15.2,6.8
		c-11.9,0-20.6-8.7-20.6-21s8.2-20.9,19.1-20.9c10.9,0,19.2,8.5,19.2,20.5V240.3z M173,238.8h35.3c-0.6-10.2-7.9-17.8-17.7-17.8
		S173.6,228.5,173,238.8z"/>
	<path class="st1" d="M258.6,201.6V261H257v-12.6c-2.8,7.8-9.8,12.9-18.5,12.9c-11.4,0-20.1-8.7-20.1-21s8.7-20.9,20.1-20.9
		c8.6,0,15.7,5,18.5,12.8v-30.6H258.6z M257,240.3c0-11.4-7.9-19.4-18.5-19.4c-10.6,0-18.5,7.9-18.5,19.4s7.9,19.4,18.5,19.4
		C249.1,259.7,257,251.7,257,240.3z"/>
	<path class="st1" d="M292.5,253.3l1.1-1c3.5,4.2,10.6,7.4,18.5,7.4c12.2,0,17.6-5.6,17.6-12.5c0-18.8-35.6-7.8-35.6-28.4
		c0-7.4,5.6-14.1,18.7-14.1c6,0,12.2,2,16.2,5.1l-0.9,1.3c-4.5-3.3-10.2-4.9-15.3-4.9c-11.8,0-17.2,5.7-17.2,12.6
		c0,18.9,35.6,8.1,35.6,28.3c0,7.4-5.8,14-19.1,14C304,261.2,296.2,258,292.5,253.3z"/>
	<path class="st1" d="M363.8,258.3c-1.9,2-5.1,3-8.1,3c-6.6,0-10-4.1-10-10.2v-29.9h-8v-1.5h8v-9h1.6v9h14v1.5h-14v29.5
		c0,5.8,2.9,9,8.5,9c2.6,0,5.1-0.9,6.9-2.6L363.8,258.3z"/>
	<path class="st1" d="M404.2,233.9V261h-1.6v-8.8c-2.6,5.5-8,9-15.8,9c-9.3,0-14.6-4.6-14.6-11.6c0-5.9,3.7-11.1,14.7-11.1h15.7
		v-4.6c0-8.6-4.6-13-13.1-13c-6.2,0-11.4,2.3-15,5.8l-1.1-1.1c3.9-3.8,9.8-6.2,16.1-6.2C399,219.4,404.2,224.4,404.2,233.9z
		 M402.6,249.2V240h-15.8c-9.4,0-13,4-13,9.5c0,6.2,4.8,10.2,13,10.2C394.8,259.7,399.8,255.9,402.6,249.2z"/>
</g>
<g class="st0">
	<path class="st1" d="M442.4,258.3c-1.9,2-5.1,3-8.1,3c-6.6,0-10-4.1-10-10.2v-29.9h-8v-1.5h8v-9h1.6v9h14v1.5h-14v29.5
		c0,5.8,2.9,9,8.5,9c2.6,0,5.1-0.9,6.9-2.6L442.4,258.3z"/>
</g>
<g class="st0">
	<path class="st1" d="M486.9,240.3h-36.8c0,11.4,8.2,19.4,19.1,19.4c5.5,0,10.8-2.1,14.1-6.4l1.1,1.1c-3.7,4.5-9.3,6.8-15.2,6.8
		c-11.9,0-20.6-8.7-20.6-21s8.2-20.9,19.1-20.9c10.9,0,19.2,8.5,19.2,20.5V240.3z M450.1,238.8h35.3c-0.6-10.2-7.9-17.8-17.7-17.8
		C457.9,220.9,450.6,228.5,450.1,238.8z"/>
	<path class="st1" d="M493.8,255.5l1-1.3c3,2.9,8.6,5.4,15.2,5.4c9.8,0,13.8-3.8,13.8-9.2c0-13.8-28.3-4.4-28.3-20.5
		c0-5.5,4.4-10.6,14.6-10.6c5.1,0,10.6,1.7,13.7,4.2l-1,1.3c-3.3-2.6-8.1-4-12.7-4c-9.1,0-13,4-13,9.1c0,14.2,28.2,4.9,28.2,20.5
		c0,6.2-5,10.7-15.4,10.7C503.2,261.2,496.9,258.8,493.8,255.5z"/>
</g>
<g class="st2">
	<path d="M1294.3,0H950c-17.6,0-31.9,13.2-31.9,29.4c0.1,3.4,3,6,6.4,5.9H950V47c-7,0-12.8,5.3-12.8,11.8v211.5h-6.4
		c-3.2-0.2-6.1,2.2-6.3,5.5c-0.2,3.2,2.2,6.1,5.5,6.3c0.3,0,0.6,0,0.8,0h51c3.2,0.2,6.1-2.2,6.3-5.5c0.2-3.2-2.2-6.1-5.5-6.3
		c-0.3,0-0.6,0-0.8,0h-6.4v-11.8H1103v17.6c0.3,3.5,3.4,6.1,6.9,5.8c3.1-0.3,5.5-2.7,5.8-5.8v-17.6h114.8v17.6
		c0.3,3.5,3.4,6.1,6.9,5.8c3.1-0.3,5.5-2.7,5.8-5.8v-17.6h25.5v11.8h-6.4c-3.2-0.2-6.1,2.2-6.3,5.5c-0.2,3.2,2.2,6.1,5.5,6.3
		c0.3,0,0.6,0,0.8,0h51c3.2,0.2,6.1-2.2,6.3-5.5c0.2-3.2-2.2-6.1-5.5-6.3c-0.3,0-0.6,0-0.8,0h-6.4V58.8c0-6.5-5.7-11.8-12.8-11.8
		V35.2h25.5c3.4,0.1,6.2-2.5,6.4-5.9C1326.1,13.2,1311.8,0,1294.3,0z M962.8,270.2H950V58.8h12.7L962.8,270.2z M1230.5,246.8h-114.8
		V235h114.8V246.8z M1268.8,246.8h-25.5V235h6.4c3.2,0.2,6.1-2.2,6.3-5.5c0.2-3.2-2.2-6.1-5.5-6.3c-0.3,0-0.6,0-0.8,0h-153
		c-3.2-0.2-6.1,2.2-6.3,5.5c-0.2,3.2,2.2,6.1,5.5,6.3c0.3,0,0.6,0,0.8,0h6.4v11.8H975.5v-64.6h293.2V246.8z M975.5,170.4V64.6h140.2
		v105.7H975.5z M1268.8,170.4h-140.2V64.6h140.2V170.4z M1281.5,47c-4.4,0-8.6,2.2-11,5.9H973.8c-2.4-3.7-6.6-5.9-11-5.9V35.2h318.8
		L1281.5,47z M1294.3,270.2h-12.8V58.8h12.7L1294.3,270.2z M932,23.5c2.6-6.8,9.7-11.8,18-11.8h344.2c8.3,0,15.4,4.9,18,11.8H932z"
		/>
	<path d="M1096.6,76.4h-102c-3.4-0.1-6.2,2.5-6.4,5.9v70.5c0.1,3.4,3,6,6.4,5.9h102c3.4,0.1,6.2-2.5,6.4-5.9V82.2
		C1102.9,78.9,1100,76.2,1096.6,76.4z M1090.3,146.9H1001V88.1h89.2L1090.3,146.9z"/>
	<path d="M1020.1,111.6h12.8c3.2,0.2,6.1-2.2,6.3-5.5c0.2-3.2-2.2-6.1-5.5-6.3c-0.3,0-0.6,0-0.8,0h-12.8c-3.2-0.2-6.1,2.2-6.3,5.5
		c-0.2,3.2,2.2,6.1,5.5,6.3C1019.6,111.6,1019.9,111.6,1020.1,111.6z"/>
	<path d="M1020.1,135.1h25.5c3.2,0.3,6.1-2.1,6.4-5.4s-2.1-6.1-5.4-6.4c-0.3,0-0.6,0-1,0h-25.5c-3.2-0.3-6.1,2.1-6.4,5.4
		s2.1,6.1,5.4,6.4C1019.5,135.1,1019.8,135.1,1020.1,135.1z"/>
	<path d="M1071.1,135.1h6.4c3.2,0.3,6.1-2.1,6.4-5.4s-2.1-6.1-5.4-6.4c-0.3,0-0.6,0-1,0h-6.4c-3.2-0.3-6.1,2.1-6.4,5.4
		s2.1,6.1,5.4,6.4C1070.5,135.1,1070.8,135.1,1071.1,135.1z"/>
</g>
<g class="st2">
	<path d="M1532.4,193.7c1.5-2.5,4.7-3.2,7.1-1.8c0,0,0.1,0,0.1,0.1c5.2,3.2,10.9,5.6,16.8,7.1c1.9-10.4,6-17.6,12.1-21.4
		c3.8-2.4,8.5-3.1,12.9-3.2c1.9-0.1,3.9,0.1,5.8,0.4c7.9,1.4,15.9,4.3,21.9,9.8c8.1,7.4,12.6,18.5,13.2,33c0.1,2.9-2.1,5.4-5,5.6
		h-0.3c-2.8,0-5.1-2.3-5.2-5.1c-0.5-11.5-3.8-20.1-9.7-25.5c-2.2-2-4.9-3.6-7.7-4.7c0.1,2.8,1.3,40.7,1.3,40.7
		c-0.1,7.3-0.2,14.6-0.2,21.9c0.4,0.8,0.8,1.6,1.3,2.3c0.4,0.6,0.8,1.3,1.2,1.9l11.7,19.6c1.9,3.3,0.9,7.5-2.3,9.5
		c-1.1,0.7-2.3,1-3.6,1c-2.4,0-4.6-1.3-5.8-3.3l-11.7-19.6c-0.3-0.5-0.6-0.9-0.9-1.4c-1.5-2.3-3.7-5.5-3.7-10
		c0-6.6,0.1-13.2,0.2-19.8c-0.2,0-0.4-0.1-0.6-0.1c-1,0-2,0.1-2.9,0.3l-2,3.5c-1.8,3.1-3.7,5.9-5.5,8.6c-1,1.4-1.9,2.8-2.9,4.3
		c-1.5,2.3-2.2,4.1-2.1,5.2c0.2,2.2,0.3,4.4,0.4,6.6c0,1,0.1,2,0.1,2.9l0.9,15.2c0.2,3.8-2.6,7-6.4,7.3h-0.4
		c-3.6-0.1-6.6-2.9-6.8-6.5l-0.8-15.2c-0.1-1-0.1-2.1-0.1-3.2c-0.1-1.9-0.1-3.8-0.3-5.6c-0.7-6,2.1-11.1,4.3-14.4
		c1-1.5,2-3.1,3.1-4.6c1.8-2.6,3.4-5,4.9-7.6l1.8-3.1c0.2-0.7,0.4-1.3,0.6-2c0.2-8,1.3-21.7,2-29.7c-1.5,3.6-2.5,7.4-2.9,11.3
		c-0.3,2.2-1.7,4.1-3.7,5c-1.3,0.6-2.6,0.8-4,0.8c-8.4,0-21.7-7.3-24.5-9C1531.7,199.4,1530.9,196.2,1532.4,193.7z M1596.9,158.2
		c-0.1-8.2-6.8-14.7-15-14.6c-8.2,0.1-14.7,6.8-14.6,15c0.1,8.1,6.7,14.6,14.7,14.6C1590.3,173.1,1597,166.4,1596.9,158.2
		C1596.9,158.2,1596.9,158.2,1596.9,158.2L1596.9,158.2z M1608.6,222.8l3.2-1.4c2.9-1.4,9.3-4.6,9.3-4.1l7.5-3.3l3.7,8.5l6.9-3.1
		l10.9,24.9l-34.1,15.2l-10.9-24.9l7.2-3.2L1608.6,222.8z M1617.6,228.6l9.2-4.1l-1.2-2.7l-9.2,4.1L1617.6,228.6z"/>
</g>
<g class="st2">
	<ellipse cx="1466" cy="159.2" rx="15.3" ry="14.6"/>
	<path d="M1496.3,260.5c2.8-1.4,5.4-3.2,7.8-5.2l-20-37.7l-2.1-30.2c-0.4-5.5-4.6-9.5-11.2-9.3c-1.2,0-3.6,0.2-4.7,0.3
		c-2.3,0.2-4.5,1-6.3,2.3c-8.3,6.3-32.8,23.7-32.8,23.7c-2.9,2-3.6,5.9-1.6,8.8c0.1,0.1,0.2,0.2,0.2,0.3c2.3,2.9,6.5,3.4,9.5,1.3
		l22-15.9l1.4,18.6c-2.4,5.4-14.3,41.6-14.3,41.6c2.5,1.1,5.1,2.1,7.7,2.9l-5.1,13.6c-1.2,3.3,0.6,7,3.9,8.2c0.1,0,0.2,0.1,0.2,0.1
		c3.5,1.2,7.3-0.6,8.7-4l5.6-14.9c6.1,0.9,12.2,0.8,18.3-0.2l6.4,15.3c1.5,3.4,5.3,5,8.8,3.7c3.4-1.2,5.1-4.8,4-8.2
		c0-0.1-0.1-0.2-0.1-0.2L1496.3,260.5z"/>
	<ellipse cx="1392.8" cy="280" rx="4.4" ry="4.2"/>
	<ellipse cx="1379.9" cy="280" rx="4.4" ry="4.2"/>
	<path d="M1377.3,260.5c0.6,0,10.2,0.8,10.8,0.9c3.9,0.4,5.1-1.9,5.9-3.1c2.7-4.3,10.8-17.1,10.8-17.1c1.3-2,3.9-7-1.3-9.1
		c-2-0.8-5.2-0.2-7.7,0.4l-19.3,4.7c-2.4,0.5-3.9,2.9-3.4,5.2c0,0,0,0.1,0,0.1c0.6,2,2.4,3.3,4.5,3.3c0.4,0,0.8-0.1,1.1-0.1l9.1-2.2
		l-5.3,8.4c-10.5-0.9-17.7,0-22.8,13.6c-0.8,2.3,0.3,4.8,2.6,5.6c0.1,0,0.1,0,0.2,0.1c0.5,0.2,1,0.3,1.6,0.3c1.9,0,3.6-1.1,4.3-2.9
		C1371.5,260.1,1374.7,260.5,1377.3,260.5z"/>
	<ellipse cx="1405.9" cy="221.2" rx="9.4" ry="9"/>
	<path d="M1425.3,221.3c-2.2-1.2-5-0.5-6.3,1.6l-23.2,38.4c-1.2,1.9-3.3,2.9-5.5,2.7l-13.2-1l0,0c-2.4,0-4.4,2-4.4,4.4
		c0,2.4,2,4.4,4.4,4.4c0,0,0,0,0,0l14.3,1c4.7,0.4,9.2-1.9,11.7-5.9l23.9-39.6c1.2-2.1,0.5-4.7-1.5-5.9
		C1425.4,221.4,1425.3,221.3,1425.3,221.3z"/>
</g>
<g class="st2">
	<path d="M1737.7,162.5c2.9-2.5,4.7-6.1,4.7-10c0.1-3.8-1.2-7.6-3.8-10.4c-2.5-2.9-6.1-4.7-10-4.8c-3.8-0.3-7.6,1.1-10.4,3.8
		c-2.8,2.6-4.5,6.2-4.7,10c-0.4,8,5.7,14.7,13.6,15.2c0,0,0,0,0,0C1731,166.5,1734.9,165.1,1737.7,162.5z"/>
	<path d="M1685.6,207.8c0,1.4,0.5,2.8,1.4,3.9c0.9,1.1,2.2,1.7,3.6,1.8c0.8-0.1,1.7-0.3,2.4-0.6l18.2-9.8c0.6-0.4,1.1-0.9,1.6-1.5
		l5.3-8.2l1.7,20.7l-19.6,62.7c0,0.3-0.1,0.5-0.2,0.8c-0.1,0.2-0.2,0.5-0.2,0.8c-0.1,2.1,0.7,4.2,2.2,5.7c1.3,1.5,3.2,2.4,5.3,2.4
		c3.6,0.3,6.2-1.4,7.7-5.1l14.1-45.3l1.2,13.9c0,0.4,0.1,0.9,0.3,1.2c0.2,0.4,0.4,0.9,0.6,1.4c0.1,0.3,0.2,0.7,0.3,1.1l12.1,29.2
		c1.1,2.7,3.7,4.5,6.6,4.5c2.1,0.3,4.2-0.4,5.7-1.9c1.5-1.5,2.4-3.5,2.4-5.6c0-1.2-0.2-2.3-0.5-3.4l-11.3-27.1l-5.4-56.8l7.1,7.6
		l1.7,20.4c0.2,1.3,0.7,2.5,1.6,3.4c0.9,1,2.1,1.6,3.5,1.6c1.4,0,2.7-0.5,3.7-1.5c1-0.9,1.6-2.3,1.6-3.7v-0.6l-2.2-23.8
		c-0.2-1-0.6-2-1.2-2.8l-20.2-21.7c-2-2.1-4.6-3.4-7.5-3.6c-3.8-0.1-7.5,1.7-9.8,4.7l-14.2,21.9l-16.9,8.9
		C1686.6,204.4,1685.6,206,1685.6,207.8z"/>
</g>
</svg>
