<?xml version="1.0" encoding="utf-8"?>
<!-- Generator: Adobe Illustrator 23.0.4, SVG Export Plug-In . SVG Version: 6.00 Build 0)  -->
<svg version="1.1" id="Layer_1" xmlns="http://www.w3.org/2000/svg" xmlns:xlink="http://www.w3.org/1999/xlink" x="0px" y="0px"
	 viewBox="0 0 1760.2 342.3" style="enable-background:new 0 0 1760.2 342.3;" xml:space="preserve">
<style type="text/css">
	.st0{opacity:0.14;}
	.st1{fill:#0071BC;}
</style>
<title>Asset 7</title>
<g class="st0">
	<path d="M1294.3,0H950c-17.6,0-31.9,13.2-31.9,29.4c0.1,3.4,3,6,6.4,5.9H950V47c-7,0-12.8,5.3-12.8,11.8v211.5h-6.4
		c-3.2-0.2-6.1,2.2-6.3,5.5c-0.2,3.2,2.2,6.1,5.5,6.3c0.3,0,0.6,0,0.8,0h51c3.2,0.2,6.1-2.2,6.3-5.5c0.2-3.2-2.2-6.1-5.5-6.3
		c-0.3,0-0.6,0-0.8,0h-6.4v-11.8H1103v17.6c0.3,3.5,3.4,6.1,6.9,5.8c3.1-0.3,5.5-2.7,5.8-5.8v-17.6h114.8v17.6
		c0.3,3.5,3.4,6.1,6.9,5.8c3.1-0.3,5.5-2.7,5.8-5.8v-17.6h25.5v11.8h-6.4c-3.2-0.2-6.1,2.2-6.3,5.5c-0.2,3.2,2.2,6.1,5.5,6.3
		c0.3,0,0.6,0,0.8,0h51c3.2,0.2,6.1-2.2,6.3-5.5c0.2-3.2-2.2-6.1-5.5-6.3c-0.3,0-0.6,0-0.8,0h-6.4V58.8c0-6.5-5.7-11.8-12.8-11.8
		V35.2h25.5c3.4,0.1,6.2-2.5,6.4-5.9C1326.1,13.2,1311.8,0,1294.3,0z M962.8,270.2H950V58.8h12.7L962.8,270.2z M1230.5,246.8h-114.8
		V235h114.8V246.8z M1268.8,246.8h-25.5V235h6.4c3.2,0.2,6.1-2.2,6.3-5.5c0.2-3.2-2.2-6.1-5.5-6.3c-0.3,0-0.6,0-0.8,0h-153
		c-3.2-0.2-6.1,2.2-6.3,5.5c-0.2,3.2,2.2,6.1,5.5,6.3c0.3,0,0.6,0,0.8,0h6.4v11.8H975.5v-64.6h293.2v64.6H1268.8z M975.5,170.4V64.6
		h140.2v105.7H975.5V170.4z M1268.8,170.4h-140.2V64.6h140.2V170.4z M1281.5,47c-4.4,0-8.6,2.2-11,5.9H973.8
		c-2.4-3.7-6.6-5.9-11-5.9V35.2h318.8L1281.5,47z M1294.3,270.2h-12.8V58.8h12.7L1294.3,270.2z M932,23.5c2.6-6.8,9.7-11.8,18-11.8
		h344.2c8.3,0,15.4,4.9,18,11.8H932z"/>
	<path d="M1096.6,76.4h-102c-3.4-0.1-6.2,2.5-6.4,5.9v70.5c0.1,3.4,3,6,6.4,5.9h102c3.4,0.1,6.2-2.5,6.4-5.9V82.2
		C1102.9,78.9,1100,76.2,1096.6,76.4z M1090.3,146.9H1001V88.1h89.2L1090.3,146.9z"/>
	<path d="M1020.1,111.6h12.8c3.2,0.2,6.1-2.2,6.3-5.5c0.2-3.2-2.2-6.1-5.5-6.3c-0.3,0-0.6,0-0.8,0h-12.8c-3.2-0.2-6.1,2.2-6.3,5.5
		c-0.2,3.2,2.2,6.1,5.5,6.3C1019.6,111.6,1019.9,111.6,1020.1,111.6z"/>
	<path d="M1020.1,135.1h25.5c3.2,0.3,6.1-2.1,6.4-5.4s-2.1-6.1-5.4-6.4c-0.3,0-0.6,0-1,0h-25.5c-3.2-0.3-6.1,2.1-6.4,5.4
		s2.1,6.1,5.4,6.4C1019.5,135.1,1019.8,135.1,1020.1,135.1z"/>
	<path d="M1071.1,135.1h6.4c3.2,0.3,6.1-2.1,6.4-5.4s-2.1-6.1-5.4-6.4c-0.3,0-0.6,0-1,0h-6.4c-3.2-0.3-6.1,2.1-6.4,5.4
		s2.1,6.1,5.4,6.4C1070.5,135.1,1070.8,135.1,1071.1,135.1z"/>
</g>
<g class="st0">
	<path d="M1532.4,193.7c1.5-2.5,4.7-3.2,7.1-1.8c0,0,0.1,0,0.1,0.1c5.2,3.2,10.9,5.6,16.8,7.1c1.9-10.4,6-17.6,12.1-21.4
		c3.8-2.4,8.5-3.1,12.9-3.2c1.9-0.1,3.9,0.1,5.8,0.4c7.9,1.4,15.9,4.3,21.9,9.8c8.1,7.4,12.6,18.5,13.2,33c0.1,2.9-2.1,5.4-5,5.6
		h-0.3c-2.8,0-5.1-2.3-5.2-5.1c-0.5-11.5-3.8-20.1-9.7-25.5c-2.2-2-4.9-3.6-7.7-4.7c0.1,2.8,1.3,40.7,1.3,40.7
		c-0.1,7.3-0.2,14.6-0.2,21.9c0.4,0.8,0.8,1.6,1.3,2.3c0.4,0.6,0.8,1.3,1.2,1.9l11.7,19.6c1.9,3.3,0.9,7.5-2.3,9.5
		c-1.1,0.7-2.3,1-3.6,1c-2.4,0-4.6-1.3-5.8-3.3l-11.7-19.6c-0.3-0.5-0.6-0.9-0.9-1.4c-1.5-2.3-3.7-5.5-3.7-10
		c0-6.6,0.1-13.2,0.2-19.8c-0.2,0-0.4-0.1-0.6-0.1c-1,0-2,0.1-2.9,0.3l-2,3.5c-1.8,3.1-3.7,5.9-5.5,8.6c-1,1.4-1.9,2.8-2.9,4.3
		c-1.5,2.3-2.2,4.1-2.1,5.2c0.2,2.2,0.3,4.4,0.4,6.6c0,1,0.1,2,0.1,2.9l0.9,15.2c0.2,3.8-2.6,7-6.4,7.3h-0.4
		c-3.6-0.1-6.6-2.9-6.8-6.5l-0.8-15.2c-0.1-1-0.1-2.1-0.1-3.2c-0.1-1.9-0.1-3.8-0.3-5.6c-0.7-6,2.1-11.1,4.3-14.4
		c1-1.5,2-3.1,3.1-4.6c1.8-2.6,3.4-5,4.9-7.6l1.8-3.1c0.2-0.7,0.4-1.3,0.6-2c0.2-8,1.3-21.7,2-29.7c-1.5,3.6-2.5,7.4-2.9,11.3
		c-0.3,2.2-1.7,4.1-3.7,5c-1.3,0.6-2.6,0.8-4,0.8c-8.4,0-21.7-7.3-24.5-9C1531.7,199.4,1530.9,196.2,1532.4,193.7z M1596.9,158.2
		c-0.1-8.2-6.8-14.7-15-14.6c-8.2,0.1-14.7,6.8-14.6,15c0.1,8.1,6.7,14.6,14.7,14.6C1590.3,173.1,1597,166.4,1596.9,158.2
		L1596.9,158.2L1596.9,158.2z M1608.6,222.8l3.2-1.4c2.9-1.4,9.3-4.6,9.3-4.1l7.5-3.3l3.7,8.5l6.9-3.1l10.9,24.9l-34.1,15.2
		l-10.9-24.9l7.2-3.2L1608.6,222.8z M1617.6,228.6l9.2-4.1l-1.2-2.7l-9.2,4.1L1617.6,228.6z"/>
</g>
<g class="st0">
	<ellipse cx="1466" cy="159.2" rx="15.3" ry="14.6"/>
	<path d="M1496.3,260.5c2.8-1.4,5.4-3.2,7.8-5.2l-20-37.7l-2.1-30.2c-0.4-5.5-4.6-9.5-11.2-9.3c-1.2,0-3.6,0.2-4.7,0.3
		c-2.3,0.2-4.5,1-6.3,2.3c-8.3,6.3-32.8,23.7-32.8,23.7c-2.9,2-3.6,5.9-1.6,8.8c0.1,0.1,0.2,0.2,0.2,0.3c2.3,2.9,6.5,3.4,9.5,1.3
		l22-15.9l1.4,18.6c-2.4,5.4-14.3,41.6-14.3,41.6c2.5,1.1,5.1,2.1,7.7,2.9l-5.1,13.6c-1.2,3.3,0.6,7,3.9,8.2c0.1,0,0.2,0.1,0.2,0.1
		c3.5,1.2,7.3-0.6,8.7-4l5.6-14.9c6.1,0.9,12.2,0.8,18.3-0.2l6.4,15.3c1.5,3.4,5.3,5,8.8,3.7c3.4-1.2,5.1-4.8,4-8.2
		c0-0.1-0.1-0.2-0.1-0.2L1496.3,260.5z"/>
	<ellipse cx="1392.8" cy="280" rx="4.4" ry="4.2"/>
	<ellipse cx="1379.9" cy="280" rx="4.4" ry="4.2"/>
	<path d="M1377.3,260.5c0.6,0,10.2,0.8,10.8,0.9c3.9,0.4,5.1-1.9,5.9-3.1c2.7-4.3,10.8-17.1,10.8-17.1c1.3-2,3.9-7-1.3-9.1
		c-2-0.8-5.2-0.2-7.7,0.4l-19.3,4.7c-2.4,0.5-3.9,2.9-3.4,5.2v0.1c0.6,2,2.4,3.3,4.5,3.3c0.4,0,0.8-0.1,1.1-0.1l9.1-2.2l-5.3,8.4
		c-10.5-0.9-17.7,0-22.8,13.6c-0.8,2.3,0.3,4.8,2.6,5.6c0.1,0,0.1,0,0.2,0.1c0.5,0.2,1,0.3,1.6,0.3c1.9,0,3.6-1.1,4.3-2.9
		C1371.5,260.1,1374.7,260.5,1377.3,260.5z"/>
	<ellipse cx="1405.9" cy="221.2" rx="9.4" ry="9"/>
	<path d="M1425.3,221.3c-2.2-1.2-5-0.5-6.3,1.6l-23.2,38.4c-1.2,1.9-3.3,2.9-5.5,2.7l-13.2-1l0,0c-2.4,0-4.4,2-4.4,4.4
		s2,4.4,4.4,4.4l0,0l14.3,1c4.7,0.4,9.2-1.9,11.7-5.9l23.9-39.6c1.2-2.1,0.5-4.7-1.5-5.9C1425.4,221.4,1425.3,221.3,1425.3,221.3z"
		/>
</g>
<g class="st0">
	<path d="M1737.7,162.5c2.9-2.5,4.7-6.1,4.7-10c0.1-3.8-1.2-7.6-3.8-10.4c-2.5-2.9-6.1-4.7-10-4.8c-3.8-0.3-7.6,1.1-10.4,3.8
		c-2.8,2.6-4.5,6.2-4.7,10c-0.4,8,5.7,14.7,13.6,15.2l0,0C1731,166.5,1734.9,165.1,1737.7,162.5z"/>
	<path d="M1685.6,207.8c0,1.4,0.5,2.8,1.4,3.9c0.9,1.1,2.2,1.7,3.6,1.8c0.8-0.1,1.7-0.3,2.4-0.6l18.2-9.8c0.6-0.4,1.1-0.9,1.6-1.5
		l5.3-8.2l1.7,20.7l-19.6,62.7c0,0.3-0.1,0.5-0.2,0.8c-0.1,0.2-0.2,0.5-0.2,0.8c-0.1,2.1,0.7,4.2,2.2,5.7c1.3,1.5,3.2,2.4,5.3,2.4
		c3.6,0.3,6.2-1.4,7.7-5.1l14.1-45.3l1.2,13.9c0,0.4,0.1,0.9,0.3,1.2c0.2,0.4,0.4,0.9,0.6,1.4c0.1,0.3,0.2,0.7,0.3,1.1l12.1,29.2
		c1.1,2.7,3.7,4.5,6.6,4.5c2.1,0.3,4.2-0.4,5.7-1.9s2.4-3.5,2.4-5.6c0-1.2-0.2-2.3-0.5-3.4l-11.3-27.1l-5.4-56.8l7.1,7.6l1.7,20.4
		c0.2,1.3,0.7,2.5,1.6,3.4c0.9,1,2.1,1.6,3.5,1.6s2.7-0.5,3.7-1.5c1-0.9,1.6-2.3,1.6-3.7v-0.6l-2.2-23.8c-0.2-1-0.6-2-1.2-2.8
		l-20.2-21.7c-2-2.1-4.6-3.4-7.5-3.6c-3.8-0.1-7.5,1.7-9.8,4.7l-14.2,21.9l-16.9,8.9C1686.6,204.4,1685.6,206,1685.6,207.8z"/>
</g>
<g>
	<path d="M61.1,32.6c0,11.6-8.4,18.6-22.3,18.6H23.1v18.1h-4V13.9h19.8C52.8,13.9,61.1,20.9,61.1,32.6z M57,32.6
		c0-9.6-6.3-15-18.2-15H23.1v29.9h15.8C50.7,47.5,57,42,57,32.6z"/>
	<path d="M110.4,28v41.2h-3.8v-8.8c-2.7,5.8-8.3,9.2-15.6,9.2c-10.5,0-17.2-5.9-17.2-17.5V28h3.9v23.8c0,9.3,5,14.2,13.6,14.2
		c9.3,0,15.1-6.2,15.1-16V28H110.4z"/>
	<path d="M168.2,48.6c0,12.3-8.8,20.9-20.4,20.9c-7.4,0-13.7-3.7-16.9-10v9.7h-3.8V10.6h3.9v26.8c3.3-6.2,9.5-9.7,16.7-9.7
		C159.4,27.7,168.2,36.2,168.2,48.6z M164.2,48.6c0-10.3-7.2-17.4-16.7-17.4s-16.6,7-16.6,17.4c0,10.3,7.1,17.4,16.6,17.4
		S164.2,58.9,164.2,48.6z"/>
	<path d="M180.4,10.6h3.9v58.6h-3.9V10.6z"/>
	<path d="M199.8,14.8c0-1.7,1.4-3.2,3.2-3.2s3.2,1.4,3.2,3.2c0,1.8-1.4,3.2-3.2,3.2S199.8,16.5,199.8,14.8z M201.1,28h3.9v41.2h-3.9
		V28z"/>
	<path d="M217.2,48.6c0-12.3,8.8-20.9,20.9-20.9c6.6,0,12.2,2.5,15.6,7.6l-2.9,2.1c-3-4.2-7.6-6.2-12.7-6.2c-9.7,0-16.8,7-16.8,17.4
		C221.2,59,228.3,66,238,66c5.1,0,9.7-2,12.7-6.2l2.9,2.1c-3.4,5-9.1,7.6-15.6,7.6C225.9,69.5,217.2,60.8,217.2,48.6z"/>
	<path d="M297.7,17.6h-19.9v-3.6h43.8v3.6h-19.9v51.7h-4V17.6z"/>
	<path d="M348.7,27.7v3.9c-0.3,0-0.6-0.1-0.9-0.1c-9.2,0-14.6,6.1-14.6,16.3v21.5h-3.9V28h3.8v9C335.5,31,341,27.7,348.7,27.7z"/>
	<path d="M389.4,43.1v26.1h-3.8v-7.3c-2.6,4.7-7.7,7.7-14.9,7.7c-9.2,0-14.9-4.7-14.9-11.8c0-6.2,3.9-11.5,15.4-11.5h14.1v-3.3
		c0-7.7-4.2-11.8-12.2-11.8c-5.7,0-10.8,2.1-14.2,5.2l-2-2.8c4.1-3.6,10.1-5.8,16.5-5.8C383.7,27.7,389.4,32.9,389.4,43.1z
		 M385.4,57.1v-7.7h-14.1c-8.5,0-11.5,3.6-11.5,8.3c0,5.4,4.2,8.7,11.5,8.7C378.2,66.3,383.1,63,385.4,57.1z"/>
	<path d="M442.5,45.1v24.1h-3.9V45.4c0-9.3-5-14.2-13.4-14.2c-9.7,0-15.6,6.2-15.6,16v22h-3.9V28h3.8v8.9c2.8-5.8,8.5-9.2,16.4-9.2
		C435.8,27.7,442.5,33.6,442.5,45.1z"/>
	<path d="M452.7,64.2l1.8-3.2c3.2,2.7,8.8,5,14.9,5c8.7,0,12.2-3.1,12.2-7.7c0-12-27.3-3.2-27.3-19.4c0-6.2,5.2-11.3,15.6-11.3
		c5.2,0,10.9,1.6,14.1,4l-1.8,3.2c-3.5-2.5-8-3.7-12.4-3.7c-8.1,0-11.6,3.3-11.6,7.7c0,12.4,27.3,3.6,27.3,19.4
		c0,6.7-5.8,11.3-16.3,11.3C462.5,69.5,456,67.2,452.7,64.2z"/>
	<path d="M537.7,48.6c0,12.4-8.8,20.9-20.4,20.9c-7.3,0-13.4-3.6-16.7-9.7v24.7h-3.9V28h3.8v9.7c3.2-6.3,9.5-10,16.9-10
		C528.9,27.7,537.7,36.3,537.7,48.6z M533.7,48.6c0-10.3-7.2-17.4-16.7-17.4s-16.6,7-16.6,17.4c0,10.3,7.1,17.4,16.6,17.4
		S533.7,58.9,533.7,48.6z"/>
	<path d="M545.4,48.6c0-12.2,8.8-20.9,20.6-20.9s20.6,8.7,20.6,20.9c0,12.2-8.8,20.9-20.6,20.9S545.4,60.8,545.4,48.6z M582.6,48.6
		c0-10.3-7.1-17.4-16.6-17.4s-16.6,7-16.6,17.4c0,10.3,7.1,17.4,16.6,17.4S582.6,58.9,582.6,48.6z"/>
	<path d="M618.4,27.7v3.9c-0.3,0-0.6-0.1-0.9-0.1c-9.2,0-14.6,6.1-14.6,16.3v21.5h-3.9V28h3.8v9C605.2,31,610.7,27.7,618.4,27.7z"/>
	<path d="M651.7,66.6c-2.1,2-5.4,2.9-8.5,2.9c-7.3,0-11.2-4.3-11.2-11.2V31.4h-7.6V28h7.6v-9h3.9v9h13.1v3.4h-13.1v26.5
		c0,5.3,2.6,8.2,7.7,8.2c2.4,0,4.7-0.8,6.4-2.3L651.7,66.6z"/>
	<path d="M692.4,43.1v26.1h-3.8v-7.3c-2.6,4.7-7.7,7.7-14.9,7.7c-9.2,0-14.9-4.7-14.9-11.8c0-6.2,3.9-11.5,15.4-11.5h14.1v-3.3
		c0-7.7-4.2-11.8-12.2-11.8c-5.7,0-10.8,2.1-14.2,5.2l-2-2.8c4.1-3.6,10.1-5.8,16.5-5.8C686.7,27.7,692.4,32.9,692.4,43.1z
		 M688.5,57.1v-7.7h-14.1c-8.5,0-11.5,3.6-11.5,8.3c0,5.4,4.2,8.7,11.5,8.7C681.3,66.3,686.1,63,688.5,57.1z"/>
	<path d="M729.2,66.6c-2.1,2-5.4,2.9-8.5,2.9c-7.3,0-11.2-4.3-11.2-11.2V31.4h-7.6V28h7.6v-9h3.9v9h13.1v3.4h-13.1v26.5
		c0,5.3,2.6,8.2,7.7,8.2c2.4,0,4.7-0.8,6.4-2.3L729.2,66.6z"/>
	<path d="M738.9,14.8c0-1.7,1.4-3.2,3.2-3.2s3.2,1.4,3.2,3.2c0,1.8-1.4,3.2-3.2,3.2S738.9,16.5,738.9,14.8z M740.1,28h3.9v41.2h-3.9
		V28z"/>
	<path d="M756.3,48.6c0-12.2,8.8-20.9,20.6-20.9s20.6,8.7,20.6,20.9c0,12.2-8.8,20.9-20.6,20.9S756.3,60.8,756.3,48.6z M793.5,48.6
		c0-10.3-7.1-17.4-16.6-17.4s-16.6,7-16.6,17.4c0,10.3,7.1,17.4,16.6,17.4S793.5,58.9,793.5,48.6z"/>
	<path d="M846.6,45.1v24.1h-3.9V45.4c0-9.3-5-14.2-13.4-14.2c-9.7,0-15.6,6.2-15.6,16v22h-3.9V28h3.8v8.9c2.8-5.8,8.5-9.2,16.4-9.2
		C839.9,27.7,846.6,33.6,846.6,45.1z"/>
	<path d="M13.4,156.9l1.8-3c3.8,4,10.8,7,18.2,7c11.1,0,16-4.8,16-10.8c0-16.6-34.5-6.6-34.5-27c0-7.8,6-14.7,19.6-14.7
		c6.1,0,12.4,1.9,16.7,5l-1.5,3.2c-4.6-3.2-10.2-4.7-15.2-4.7c-10.7,0-15.6,5-15.6,11.1c0,16.6,34.5,6.8,34.5,26.9
		c0,7.8-6.2,14.6-19.9,14.6C25.4,164.4,17.5,161.3,13.4,156.9z"/>
	<path d="M86.3,161.4c-2.1,2-5.4,2.9-8.5,2.9c-7.3,0-11.2-4.3-11.2-11.2v-26.9h-7.6v-3.4h7.6v-9h3.9v9h13.1v3.4H70.6v26.5
		c0,5.3,2.6,8.2,7.7,8.2c2.4,0,4.7-0.8,6.4-2.3L86.3,161.4z"/>
	<path d="M127.1,137.9V164h-3.8v-7.3c-2.6,4.7-7.7,7.7-14.9,7.7c-9.2,0-14.9-4.7-14.9-11.8c0-6.2,3.9-11.5,15.4-11.5h14.1v-3.3
		c0-7.7-4.2-11.8-12.2-11.8c-5.7,0-10.8,2.1-14.2,5.2l-2-2.8c4.1-3.6,10.1-5.8,16.5-5.8C121.4,122.5,127.1,127.7,127.1,137.9z
		 M123.2,151.9v-7.7h-14.1c-8.5,0-11.5,3.6-11.5,8.3c0,5.4,4.2,8.7,11.5,8.7C116,161.1,120.8,157.8,123.2,151.9z"/>
	<path d="M163.8,161.4c-2.1,2-5.4,2.9-8.5,2.9c-7.3,0-11.2-4.3-11.2-11.2v-26.9h-7.6v-3.4h7.6v-9h3.9v9h13.1v3.4h-13.1v26.5
		c0,5.3,2.6,8.2,7.7,8.2c2.4,0,4.7-0.8,6.4-2.3L163.8,161.4z"/>
	<path d="M173.6,109.6c0-1.7,1.4-3.2,3.2-3.2s3.2,1.4,3.2,3.2c0,1.8-1.4,3.2-3.2,3.2S173.6,111.3,173.6,109.6z M174.8,122.8h3.9V164
		h-3.9V122.8z"/>
	<path d="M189.4,159l1.8-3.2c3.2,2.7,8.8,5,14.9,5c8.7,0,12.2-3.1,12.2-7.7c0-12-27.3-3.2-27.3-19.4c0-6.2,5.2-11.3,15.6-11.3
		c5.2,0,10.9,1.6,14.1,4l-1.8,3.2c-3.5-2.5-8-3.7-12.4-3.7c-8.1,0-11.6,3.3-11.6,7.7c0,12.4,27.3,3.6,27.3,19.4
		c0,6.7-5.8,11.3-16.3,11.3C199.1,164.3,192.6,162,189.4,159z"/>
	<path d="M253.7,161.4c-2.1,2-5.4,2.9-8.5,2.9c-7.3,0-11.2-4.3-11.2-11.2v-26.9h-7.6v-3.4h7.6v-9h3.9v9h13.1v3.4h-13.1v26.5
		c0,5.3,2.6,8.2,7.7,8.2c2.4,0,4.7-0.8,6.4-2.3L253.7,161.4z"/>
	<path d="M263.4,109.6c0-1.7,1.4-3.2,3.2-3.2s3.2,1.4,3.2,3.2c0,1.8-1.4,3.2-3.2,3.2S263.4,111.3,263.4,109.6z M264.6,122.8h3.9V164
		h-3.9V122.8z"/>
	<path d="M280.8,143.4c0-12.3,8.8-20.9,20.9-20.9c6.6,0,12.2,2.5,15.6,7.6l-2.9,2.1c-3-4.2-7.6-6.2-12.7-6.2
		c-9.7,0-16.8,7-16.8,17.4c0,10.4,7.1,17.4,16.8,17.4c5.1,0,9.7-2,12.7-6.2l2.9,2.1c-3.4,5-9.1,7.6-15.6,7.6
		C289.5,164.3,280.8,155.6,280.8,143.4z"/>
	<path d="M323,159l1.8-3.2c3.2,2.7,8.8,5,14.9,5c8.7,0,12.2-3.1,12.2-7.7c0-12-27.3-3.2-27.3-19.4c0-6.2,5.2-11.3,15.6-11.3
		c5.2,0,10.9,1.6,14.1,4l-1.8,3.2c-3.5-2.5-8-3.7-12.4-3.7c-8.1,0-11.6,3.3-11.6,7.7c0,12.4,27.3,3.6,27.3,19.4
		c0,6.7-5.8,11.3-16.3,11.3C332.7,164.3,326.3,162,323,159z"/>
	<path d="M385.9,109.6c0-1.7,1.4-3.2,3.2-3.2s3.2,1.4,3.2,3.2c0,1.8-1.4,3.2-3.2,3.2S385.9,111.3,385.9,109.6z M387.2,122.8h3.9V164
		h-3.9V122.8z"/>
	<path d="M444.7,139.9V164h-3.9v-23.8c0-9.3-5-14.2-13.4-14.2c-9.7,0-15.6,6.2-15.6,16v22h-3.9v-41.2h3.8v8.9
		c2.8-5.8,8.5-9.2,16.4-9.2C438,122.5,444.7,128.4,444.7,139.9z"/>
	<path d="M501.7,161.4c-2.1,2-5.4,2.9-8.5,2.9c-7.3,0-11.2-4.3-11.2-11.2v-26.9h-7.6v-3.4h7.6v-9h3.9v9h13.1v3.4H486v26.5
		c0,5.3,2.6,8.2,7.7,8.2c2.4,0,4.7-0.8,6.4-2.3L501.7,161.4z"/>
	<path d="M549.6,139.9V164h-3.9v-23.8c0-9.3-5-14.2-13.4-14.2c-9.7,0-15.6,6.2-15.6,16v22h-3.9v-58.6h3.9v26
		c2.8-5.6,8.5-8.9,16.2-8.9C542.9,122.5,549.6,128.4,549.6,139.9z"/>
	<path d="M600.8,144.3h-35.5c0.4,9.8,7.6,16.4,17.5,16.4c5.2,0,10-1.9,13.2-5.8l2.3,2.6c-3.6,4.4-9.3,6.7-15.6,6.7
		c-12.5,0-21.2-8.7-21.2-20.9s8.5-20.9,19.7-20.9c11.3,0,19.7,8.5,19.7,20.8C600.9,143.6,600.8,144,600.8,144.3z M565.4,141.3H597
		c-0.6-8.9-7-15.3-15.8-15.3C572.4,125.9,566,132.3,565.4,141.3z"/>
	<path class="st1" d="M18.6,235.4v-31.8h4v31.7c0,13.8,6.6,20.3,18.2,20.3s18.1-6.5,18.1-20.3v-31.7h4v31.8
		c0,15.8-8.5,23.9-22.2,23.9S18.6,251.2,18.6,235.4z"/>
	<path class="st1" d="M117.3,234.7v24.1h-3.9V235c0-9.3-5-14.2-13.4-14.2c-9.7,0-15.6,6.2-15.6,16v22h-3.9v-41.2h3.8v8.9
		c2.8-5.8,8.5-9.2,16.4-9.2C110.6,217.3,117.3,223.2,117.3,234.7z"/>
	<path class="st1" d="M132.3,204.4c0-1.7,1.4-3.2,3.2-3.2s3.2,1.4,3.2,3.2c0,1.8-1.4,3.2-3.2,3.2S132.3,206.1,132.3,204.4z
		 M133.6,217.6h3.9v41.2h-3.9V217.6z"/>
	<path class="st1" d="M174.7,256.2c-2.1,2-5.4,2.9-8.5,2.9c-7.3,0-11.2-4.3-11.2-11.2V221h-7.6v-3.4h7.6v-9h3.9v9h13.1v3.4h-13.1
		v26.5c0,5.3,2.6,8.2,7.7,8.2c2.4,0,4.7-0.8,6.4-2.3L174.7,256.2z"/>
	<path class="st1" d="M219,239.1h-35.5c0.4,9.8,7.6,16.4,17.5,16.4c5.2,0,10-1.9,13.2-5.8l2.3,2.6c-3.6,4.4-9.3,6.7-15.6,6.7
		c-12.5,0-21.2-8.7-21.2-20.9c0-12.2,8.5-20.9,19.7-20.9c11.3,0,19.7,8.5,19.7,20.8C219.1,238.4,219,238.8,219,239.1z M183.6,236.1
		h31.6c-0.6-8.9-7-15.3-15.8-15.3C190.6,220.7,184.2,227.1,183.6,236.1z"/>
	<path class="st1" d="M268,200.2v58.6h-3.9v-9.7c-3.2,6.4-9.5,10-16.9,10c-11.6,0-20.4-8.6-20.4-20.9c0-12.4,8.8-20.9,20.4-20.9
		c7.3,0,13.5,3.6,16.8,9.9v-26.9H268z M264,238.2c0-10.3-7.1-17.4-16.6-17.4s-16.6,7-16.6,17.4c0,10.3,7.1,17.4,16.6,17.4
		S264,248.5,264,238.2z"/>
	<path class="st1" d="M300.6,251.7l1.8-3c3.8,4,10.8,7,18.2,7c11.1,0,16-4.8,16-10.8c0-16.6-34.5-6.6-34.5-27
		c0-7.8,6-14.7,19.6-14.7c6.1,0,12.4,1.9,16.7,5l-1.5,3.2c-4.6-3.2-10.2-4.7-15.2-4.7c-10.7,0-15.6,5-15.6,11.1
		c0,16.6,34.5,6.8,34.5,26.9c0,7.8-6.2,14.6-19.9,14.6C312.5,259.2,304.6,256.1,300.6,251.7z"/>
	<path class="st1" d="M373.5,256.2c-2.1,2-5.4,2.9-8.5,2.9c-7.3,0-11.2-4.3-11.2-11.2V221h-7.6v-3.4h7.6v-9h3.9v9h13.1v3.4h-13.1
		v26.5c0,5.3,2.6,8.2,7.7,8.2c2.4,0,4.7-0.8,6.4-2.3L373.5,256.2z"/>
	<path class="st1" d="M414.3,232.7v26.1h-3.8v-7.3c-2.6,4.7-7.7,7.7-14.9,7.7c-9.2,0-14.9-4.7-14.9-11.8c0-6.2,3.9-11.5,15.4-11.5
		h14.1v-3.3c0-7.7-4.2-11.8-12.2-11.8c-5.7,0-10.8,2.1-14.2,5.2l-2-2.8c4.1-3.6,10.1-5.8,16.5-5.8
		C408.6,217.3,414.3,222.5,414.3,232.7z M410.3,246.7v-7.7h-14.1c-8.5,0-11.5,3.6-11.5,8.3c0,5.4,4.2,8.7,11.5,8.7
		C403.1,255.9,407.9,252.6,410.3,246.7z"/>
	<path class="st1" d="M451,256.2c-2.1,2-5.4,2.9-8.5,2.9c-7.3,0-11.2-4.3-11.2-11.2V221h-7.6v-3.4h7.6v-9h3.9v9h13.1v3.4h-13.1v26.5
		c0,5.3,2.6,8.2,7.7,8.2c2.4,0,4.7-0.8,6.4-2.3L451,256.2z"/>
	<path class="st1" d="M495.3,239.1h-35.5c0.4,9.8,7.6,16.4,17.5,16.4c5.2,0,10-1.9,13.2-5.8l2.3,2.6c-3.6,4.4-9.3,6.7-15.6,6.7
		c-12.5,0-21.2-8.7-21.2-20.9c0-12.2,8.5-20.9,19.7-20.9c11.3,0,19.7,8.5,19.7,20.8C495.4,238.4,495.3,238.8,495.3,239.1z
		 M459.9,236.1h31.6c-0.6-8.9-7-15.3-15.8-15.3C467,220.7,460.6,227.1,459.9,236.1z"/>
	<path class="st1" d="M501.6,253.8l1.8-3.2c3.2,2.7,8.8,5,14.9,5c8.7,0,12.2-3.1,12.2-7.7c0-12-27.3-3.2-27.3-19.4
		c0-6.2,5.2-11.3,15.6-11.3c5.2,0,10.9,1.6,14.1,4l-1.8,3.2c-3.5-2.5-8-3.7-12.4-3.7c-8.1,0-11.6,3.3-11.6,7.7
		c0,12.4,27.3,3.6,27.3,19.4c0,6.7-5.8,11.3-16.3,11.3C511.3,259.1,504.8,256.8,501.6,253.8z"/>
</g>
</svg>
