<?xml version="1.0" encoding="utf-8"?>
<!-- Generator: Adobe Illustrator 23.0.4, SVG Export Plug-In . SVG Version: 6.00 Build 0)  -->
<svg version="1.1" id="Layer_1" xmlns="http://www.w3.org/2000/svg" xmlns:xlink="http://www.w3.org/1999/xlink" x="0px" y="0px"
	 viewBox="0 0 1760.2 342.3" style="enable-background:new 0 0 1760.2 342.3;" xml:space="preserve">
<style type="text/css">
	.st0{opacity:0.14;}
	.st1{fill:#0071BC;}
</style>
<title>Asset 7</title>
<g class="st0">
	<path d="M1294.3,0H950c-17.6,0-31.9,13.2-31.9,29.4c0.1,3.4,3,6,6.4,5.9H950V47c-7,0-12.8,5.3-12.8,11.8v211.5h-6.4
		c-3.2-0.2-6.1,2.2-6.3,5.5c-0.2,3.2,2.2,6.1,5.5,6.3c0.3,0,0.6,0,0.8,0h51c3.2,0.2,6.1-2.2,6.3-5.5c0.2-3.2-2.2-6.1-5.5-6.3
		c-0.3,0-0.6,0-0.8,0h-6.4v-11.8H1103v17.6c0.3,3.5,3.4,6.1,6.9,5.8c3.1-0.3,5.5-2.7,5.8-5.8v-17.6h114.8v17.6
		c0.3,3.5,3.4,6.1,6.9,5.8c3.1-0.3,5.5-2.7,5.8-5.8v-17.6h25.5v11.8h-6.4c-3.2-0.2-6.1,2.2-6.3,5.5c-0.2,3.2,2.2,6.1,5.5,6.3
		c0.3,0,0.6,0,0.8,0h51c3.2,0.2,6.1-2.2,6.3-5.5c0.2-3.2-2.2-6.1-5.5-6.3c-0.3,0-0.6,0-0.8,0h-6.4V58.8c0-6.5-5.7-11.8-12.8-11.8
		V35.2h25.5c3.4,0.1,6.2-2.5,6.4-5.9C1326.1,13.2,1311.8,0,1294.3,0z M962.8,270.2H950V58.8h12.7L962.8,270.2z M1230.5,246.8h-114.8
		V235h114.8V246.8z M1268.8,246.8h-25.5V235h6.4c3.2,0.2,6.1-2.2,6.3-5.5c0.2-3.2-2.2-6.1-5.5-6.3c-0.3,0-0.6,0-0.8,0h-153
		c-3.2-0.2-6.1,2.2-6.3,5.5c-0.2,3.2,2.2,6.1,5.5,6.3c0.3,0,0.6,0,0.8,0h6.4v11.8H975.5v-64.6h293.2v64.6L1268.8,246.8L1268.8,246.8
		z M975.5,170.4V64.6h140.2v105.7H975.5V170.4z M1268.8,170.4h-140.2V64.6h140.2V170.4z M1281.5,47c-4.4,0-8.6,2.2-11,5.9H973.8
		c-2.4-3.7-6.6-5.9-11-5.9V35.2h318.8L1281.5,47z M1294.3,270.2h-12.8V58.8h12.7L1294.3,270.2z M932,23.5c2.6-6.8,9.7-11.8,18-11.8
		h344.2c8.3,0,15.4,4.9,18,11.8H932z"/>
	<path d="M1096.6,76.4h-102c-3.4-0.1-6.2,2.5-6.4,5.9v70.5c0.1,3.4,3,6,6.4,5.9h102c3.4,0.1,6.2-2.5,6.4-5.9V82.2
		C1102.9,78.9,1100,76.2,1096.6,76.4z M1090.3,146.9H1001V88.1h89.2L1090.3,146.9z"/>
	<path d="M1020.1,111.6h12.8c3.2,0.2,6.1-2.2,6.3-5.5c0.2-3.2-2.2-6.1-5.5-6.3c-0.3,0-0.6,0-0.8,0h-12.8c-3.2-0.2-6.1,2.2-6.3,5.5
		c-0.2,3.2,2.2,6.1,5.5,6.3C1019.6,111.6,1019.9,111.6,1020.1,111.6z"/>
	<path d="M1020.1,135.1h25.5c3.2,0.3,6.1-2.1,6.4-5.4s-2.1-6.1-5.4-6.4c-0.3,0-0.6,0-1,0h-25.5c-3.2-0.3-6.1,2.1-6.4,5.4
		s2.1,6.1,5.4,6.4C1019.5,135.1,1019.8,135.1,1020.1,135.1z"/>
	<path d="M1071.1,135.1h6.4c3.2,0.3,6.1-2.1,6.4-5.4s-2.1-6.1-5.4-6.4c-0.3,0-0.6,0-1,0h-6.4c-3.2-0.3-6.1,2.1-6.4,5.4
		s2.1,6.1,5.4,6.4C1070.5,135.1,1070.8,135.1,1071.1,135.1z"/>
</g>
<g class="st0">
	<path d="M1532.4,193.7c1.5-2.5,4.7-3.2,7.1-1.8c0,0,0.1,0,0.1,0.1c5.2,3.2,10.9,5.6,16.8,7.1c1.9-10.4,6-17.6,12.1-21.4
		c3.8-2.4,8.5-3.1,12.9-3.2c1.9-0.1,3.9,0.1,5.8,0.4c7.9,1.4,15.9,4.3,21.9,9.8c8.1,7.4,12.6,18.5,13.2,33c0.1,2.9-2.1,5.4-5,5.6
		h-0.3c-2.8,0-5.1-2.3-5.2-5.1c-0.5-11.5-3.8-20.1-9.7-25.5c-2.2-2-4.9-3.6-7.7-4.7c0.1,2.8,1.3,40.7,1.3,40.7
		c-0.1,7.3-0.2,14.6-0.2,21.9c0.4,0.8,0.8,1.6,1.3,2.3c0.4,0.6,0.8,1.3,1.2,1.9l11.7,19.6c1.9,3.3,0.9,7.5-2.3,9.5
		c-1.1,0.7-2.3,1-3.6,1c-2.4,0-4.6-1.3-5.8-3.3l-11.7-19.6c-0.3-0.5-0.6-0.9-0.9-1.4c-1.5-2.3-3.7-5.5-3.7-10
		c0-6.6,0.1-13.2,0.2-19.8c-0.2,0-0.4-0.1-0.6-0.1c-1,0-2,0.1-2.9,0.3l-2,3.5c-1.8,3.1-3.7,5.9-5.5,8.6c-1,1.4-1.9,2.8-2.9,4.3
		c-1.5,2.3-2.2,4.1-2.1,5.2c0.2,2.2,0.3,4.4,0.4,6.6c0,1,0.1,2,0.1,2.9l0.9,15.2c0.2,3.8-2.6,7-6.4,7.3h-0.4
		c-3.6-0.1-6.6-2.9-6.8-6.5l-0.8-15.2c-0.1-1-0.1-2.1-0.1-3.2c-0.1-1.9-0.1-3.8-0.3-5.6c-0.7-6,2.1-11.1,4.3-14.4
		c1-1.5,2-3.1,3.1-4.6c1.8-2.6,3.4-5,4.9-7.6l1.8-3.1c0.2-0.7,0.4-1.3,0.6-2c0.2-8,1.3-21.7,2-29.7c-1.5,3.6-2.5,7.4-2.9,11.3
		c-0.3,2.2-1.7,4.1-3.7,5c-1.3,0.6-2.6,0.8-4,0.8c-8.4,0-21.7-7.3-24.5-9C1531.7,199.4,1530.9,196.2,1532.4,193.7z M1596.9,158.2
		c-0.1-8.2-6.8-14.7-15-14.6c-8.2,0.1-14.7,6.8-14.6,15c0.1,8.1,6.7,14.6,14.7,14.6C1590.3,173.1,1597,166.4,1596.9,158.2
		L1596.9,158.2L1596.9,158.2z M1608.6,222.8l3.2-1.4c2.9-1.4,9.3-4.6,9.3-4.1l7.5-3.3l3.7,8.5l6.9-3.1l10.9,24.9l-34.1,15.2
		l-10.9-24.9l7.2-3.2L1608.6,222.8z M1617.6,228.6l9.2-4.1l-1.2-2.7l-9.2,4.1L1617.6,228.6z"/>
</g>
<g class="st0">
	<ellipse cx="1466" cy="159.2" rx="15.3" ry="14.6"/>
	<path d="M1496.3,260.5c2.8-1.4,5.4-3.2,7.8-5.2l-20-37.7l-2.1-30.2c-0.4-5.5-4.6-9.5-11.2-9.3c-1.2,0-3.6,0.2-4.7,0.3
		c-2.3,0.2-4.5,1-6.3,2.3c-8.3,6.3-32.8,23.7-32.8,23.7c-2.9,2-3.6,5.9-1.6,8.8c0.1,0.1,0.2,0.2,0.2,0.3c2.3,2.9,6.5,3.4,9.5,1.3
		l22-15.9l1.4,18.6c-2.4,5.4-14.3,41.6-14.3,41.6c2.5,1.1,5.1,2.1,7.7,2.9l-5.1,13.6c-1.2,3.3,0.6,7,3.9,8.2c0.1,0,0.2,0.1,0.2,0.1
		c3.5,1.2,7.3-0.6,8.7-4l5.6-14.9c6.1,0.9,12.2,0.8,18.3-0.2l6.4,15.3c1.5,3.4,5.3,5,8.8,3.7c3.4-1.2,5.1-4.8,4-8.2
		c0-0.1-0.1-0.2-0.1-0.2L1496.3,260.5z"/>
	<ellipse cx="1392.8" cy="280" rx="4.4" ry="4.2"/>
	<ellipse cx="1379.9" cy="280" rx="4.4" ry="4.2"/>
	<path d="M1377.3,260.5c0.6,0,10.2,0.8,10.8,0.9c3.9,0.4,5.1-1.9,5.9-3.1c2.7-4.3,10.8-17.1,10.8-17.1c1.3-2,3.9-7-1.3-9.1
		c-2-0.8-5.2-0.2-7.7,0.4l-19.3,4.7c-2.4,0.5-3.9,2.9-3.4,5.2v0.1c0.6,2,2.4,3.3,4.5,3.3c0.4,0,0.8-0.1,1.1-0.1l9.1-2.2l-5.3,8.4
		c-10.5-0.9-17.7,0-22.8,13.6c-0.8,2.3,0.3,4.8,2.6,5.6c0.1,0,0.1,0,0.2,0.1c0.5,0.2,1,0.3,1.6,0.3c1.9,0,3.6-1.1,4.3-2.9
		C1371.5,260.1,1374.7,260.5,1377.3,260.5z"/>
	<ellipse cx="1405.9" cy="221.2" rx="9.4" ry="9"/>
	<path d="M1425.3,221.3c-2.2-1.2-5-0.5-6.3,1.6l-23.2,38.4c-1.2,1.9-3.3,2.9-5.5,2.7l-13.2-1l0,0c-2.4,0-4.4,2-4.4,4.4
		s2,4.4,4.4,4.4l0,0l14.3,1c4.7,0.4,9.2-1.9,11.7-5.9l23.9-39.6c1.2-2.1,0.5-4.7-1.5-5.9C1425.4,221.4,1425.3,221.3,1425.3,221.3z"
		/>
</g>
<g class="st0">
	<path d="M1737.7,162.5c2.9-2.5,4.7-6.1,4.7-10c0.1-3.8-1.2-7.6-3.8-10.4c-2.5-2.9-6.1-4.7-10-4.8c-3.8-0.3-7.6,1.1-10.4,3.8
		c-2.8,2.6-4.5,6.2-4.7,10c-0.4,8,5.7,14.7,13.6,15.2l0,0C1731,166.5,1734.9,165.1,1737.7,162.5z"/>
	<path d="M1685.6,207.8c0,1.4,0.5,2.8,1.4,3.9c0.9,1.1,2.2,1.7,3.6,1.8c0.8-0.1,1.7-0.3,2.4-0.6l18.2-9.8c0.6-0.4,1.1-0.9,1.6-1.5
		l5.3-8.2l1.7,20.7l-19.6,62.7c0,0.3-0.1,0.5-0.2,0.8c-0.1,0.2-0.2,0.5-0.2,0.8c-0.1,2.1,0.7,4.2,2.2,5.7c1.3,1.5,3.2,2.4,5.3,2.4
		c3.6,0.3,6.2-1.4,7.7-5.1l14.1-45.3l1.2,13.9c0,0.4,0.1,0.9,0.3,1.2c0.2,0.4,0.4,0.9,0.6,1.4c0.1,0.3,0.2,0.7,0.3,1.1l12.1,29.2
		c1.1,2.7,3.7,4.5,6.6,4.5c2.1,0.3,4.2-0.4,5.7-1.9s2.4-3.5,2.4-5.6c0-1.2-0.2-2.3-0.5-3.4l-11.3-27.1l-5.4-56.8l7.1,7.6l1.7,20.4
		c0.2,1.3,0.7,2.5,1.6,3.4c0.9,1,2.1,1.6,3.5,1.6s2.7-0.5,3.7-1.5c1-0.9,1.6-2.3,1.6-3.7v-0.6l-2.2-23.8c-0.2-1-0.6-2-1.2-2.8
		l-20.2-21.7c-2-2.1-4.6-3.4-7.5-3.6c-3.8-0.1-7.5,1.7-9.8,4.7l-14.2,21.9l-16.9,8.9C1686.6,204.4,1685.6,206,1685.6,207.8z"/>
</g>
<g>
	<path d="M59.9,31.5c0,11.6-8.2,18.4-22,18.4H21.4v18.6h-2.7V13.1h19.2C51.6,13.1,59.9,19.9,59.9,31.5z M57.3,31.5
		c0-10.1-6.8-15.9-19.2-15.9H21.4v31.8h16.7C50.5,47.4,57.3,41.6,57.3,31.5z"/>
	<path d="M108.7,27.4v41h-2.5v-10c-2.5,6.3-8.2,10.2-16,10.2c-10.4,0-17-5.8-17-17.1V27.4h2.6v23.9c0,9.8,5.3,14.9,14.5,14.9
		c9.9,0,15.9-6.6,15.9-16.7V27.4H108.7z"/>
	<path d="M166.5,47.9c0,12.2-8.7,20.8-20.1,20.8c-8.1,0-14.6-4.3-17.7-11.5v11.2h-2.5V9.8h2.6v28.6c3.1-7,9.7-11.3,17.6-11.3
		C157.8,27.1,166.5,35.6,166.5,47.9z M163.9,47.9c0-10.9-7.5-18.3-17.5-18.3s-17.5,7.4-17.5,18.3c0,10.9,7.5,18.4,17.5,18.4
		S163.9,58.8,163.9,47.9z"/>
	<path d="M179.4,9.8h2.6v58.6h-2.6V9.8z"/>
	<path d="M198.2,14.2c0-1.4,1.2-2.6,2.6-2.6s2.6,1.2,2.6,2.5c0,1.4-1.2,2.6-2.6,2.6S198.2,15.5,198.2,14.2z M199.5,27.4h2.6v41h-2.6
		V27.4z"/>
	<path d="M215,47.9c0-12.2,8.6-20.8,20.4-20.8c6.2,0,11.7,2.4,15.2,7l-2,1.7c-3.1-4.3-7.9-6.2-13.2-6.2c-10.2,0-17.8,7.4-17.8,18.3
		c0,11,7.6,18.4,17.8,18.4c5.3,0,10.1-2,13.2-6.2l2,1.6c-3.5,4.7-9,7-15.2,7C223.6,68.7,215,60.1,215,47.9z"/>
	<path d="M294.9,15.6h-20.3v-2.4h43.2v2.4h-20.3v52.8h-2.6V15.6z"/>
	<path d="M344.2,27.1v2.6h-0.7c-9.6,0-15.2,6.4-15.2,16.9v21.8h-2.6v-41h2.5v9.9C330.6,30.8,336.1,27.1,344.2,27.1z"/>
	<path d="M384.2,41.9v26.5h-2.5v-8.2c-2.5,5.1-7.7,8.5-15.2,8.5c-9.2,0-14.7-4.7-14.7-11.5c0-6,3.8-11.2,14.9-11.2h14.9v-4
		c0-8.1-4.3-12.4-12.6-12.4c-5.9,0-11.1,2.2-14.6,5.5l-1.4-1.9c3.9-3.7,9.9-6,16.1-6C378.8,27.1,384.2,32.2,384.2,41.9z M381.5,56.6
		V48h-14.9c-8.9,0-12.3,3.8-12.3,8.9c0,5.8,4.6,9.5,12.2,9.5C374.1,66.5,379,62.9,381.5,56.6z"/>
	<path d="M437.1,44.3v24.1h-2.6V44.5c0-9.8-5.2-14.9-14.1-14.9c-10.3,0-16.5,6.6-16.5,16.7v22.1h-2.6v-41h2.5v10
		c2.6-6.3,8.5-10.3,16.8-10.3C430.6,27.1,437.1,33,437.1,44.3z"/>
	<path d="M447.8,63.2l1.3-2.1c3.1,2.8,8.6,5.2,15,5.2c9.2,0,13-3.5,13-8.5c0-13-27.7-3.8-27.7-19.8c0-5.8,4.7-10.9,15-10.9
		c5.1,0,10.6,1.7,13.7,4.2l-1.3,2.1c-3.3-2.6-8-3.9-12.5-3.9c-8.5,0-12.2,3.7-12.2,8.5c0,13.4,27.6,4.3,27.6,19.9
		c0,6.4-5.3,10.8-15.6,10.8C457.3,68.7,451,66.4,447.8,63.2z"/>
	<path d="M531.6,48c0,12.2-8.7,20.7-20.1,20.7c-7.9,0-14.5-4.3-17.6-11.2v26.3h-2.6V27.4h2.5v11.2c3.1-7.2,9.6-11.5,17.7-11.5
		C522.9,27.1,531.6,35.7,531.6,48z M529,48c0-10.9-7.5-18.4-17.5-18.4s-17.5,7.5-17.5,18.4s7.5,18.3,17.5,18.3S529,58.9,529,48z"/>
	<path d="M539.8,47.9c0-12.2,8.6-20.8,20.1-20.8c11.6,0,20.1,8.6,20.1,20.8c0,12.2-8.5,20.8-20.1,20.8
		C548.4,68.7,539.8,60.1,539.8,47.9z M577.5,47.9c0-10.9-7.5-18.3-17.5-18.3s-17.5,7.4-17.5,18.3c0,10.9,7.5,18.4,17.5,18.4
		S577.5,58.8,577.5,47.9z"/>
	<path d="M611.4,27.1v2.6h-0.7c-9.6,0-15.2,6.4-15.2,16.9v21.8h-2.6v-41h2.5v9.9C597.8,30.8,603.4,27.1,611.4,27.1z"/>
	<path d="M644.1,65.8c-2,1.9-5.2,2.8-8.2,2.8c-6.8,0-10.4-4.1-10.4-10.5V29.7h-7.7v-2.3h7.7v-9h2.6v9h13.5v2.3h-13.5v28
		c0,5.5,2.8,8.6,8.1,8.6c2.5,0,4.9-0.9,6.6-2.4L644.1,65.8z"/>
	<path d="M684.3,41.9v26.5h-2.5v-8.2c-2.5,5.1-7.7,8.5-15.2,8.5c-9.2,0-14.7-4.7-14.7-11.5c0-6,3.8-11.2,14.9-11.2h14.9v-4
		c0-8.1-4.3-12.4-12.6-12.4c-5.9,0-11.1,2.2-14.6,5.5l-1.4-1.9c3.9-3.7,9.9-6,16.1-6C679,27.1,684.3,32.2,684.3,41.9z M681.7,56.6
		V48h-14.9c-8.9,0-12.3,3.8-12.3,8.9c0,5.8,4.6,9.5,12.2,9.5C674.3,66.5,679.2,62.9,681.7,56.6z"/>
	<path d="M720.8,65.8c-2,1.9-5.2,2.8-8.2,2.8c-6.8,0-10.4-4.1-10.4-10.5V29.7h-7.7v-2.3h7.7v-9h2.6v9h13.5v2.3h-13.5v28
		c0,5.5,2.8,8.6,8.1,8.6c2.5,0,4.9-0.9,6.6-2.4L720.8,65.8z"/>
	<path d="M731,14.2c0-1.4,1.2-2.6,2.6-2.6s2.6,1.2,2.6,2.5c0,1.4-1.2,2.6-2.6,2.6S731,15.5,731,14.2z M732.4,27.4h2.6v41h-2.6V27.4z
		"/>
	<path d="M747.9,47.9c0-12.2,8.6-20.8,20.1-20.8c11.6,0,20.1,8.6,20.1,20.8c0,12.2-8.5,20.8-20.1,20.8
		C756.5,68.7,747.9,60.1,747.9,47.9z M785.5,47.9c0-10.9-7.5-18.3-17.5-18.3s-17.5,7.4-17.5,18.3c0,10.9,7.5,18.4,17.5,18.4
		S785.5,58.8,785.5,47.9z"/>
	<path d="M836.9,44.3v24.1h-2.6V44.5c0-9.8-5.2-14.9-14.1-14.9c-10.3,0-16.5,6.6-16.5,16.7v22.1H801v-41h2.5v10
		c2.6-6.3,8.5-10.3,16.8-10.3C830.4,27.1,836.9,33,836.9,44.3z"/>
	<path d="M12.9,155.9l1.4-1.9c3.6,4,10.6,7.2,18.2,7.2c11.6,0,16.7-5.3,16.7-11.7c0-17.7-34.8-7.2-34.8-27.6
		c0-7.4,5.7-14.2,18.9-14.2c6.1,0,12.2,2,16.4,5.1l-1.2,2.1c-4.4-3.2-10.1-4.8-15.1-4.8c-11.2,0-16.4,5.4-16.4,11.8
		c0,17.8,34.8,7.5,34.8,27.6c0,7.5-5.9,14.1-19.3,14.1C24.6,163.5,16.8,160.4,12.9,155.9z"/>
	<path d="M84.4,160.6c-2,1.9-5.2,2.8-8.2,2.8c-6.8,0-10.4-4.1-10.4-10.5v-28.4H58v-2.3h7.7v-9h2.6v9h13.5v2.3H68.4v28
		c0,5.5,2.8,8.6,8.1,8.6c2.5,0,4.9-0.9,6.6-2.4L84.4,160.6z"/>
	<path d="M124.6,136.7v26.5h-2.5V155c-2.5,5.1-7.7,8.5-15.2,8.5c-9.2,0-14.7-4.7-14.7-11.5c0-6,3.8-11.2,14.9-11.2H122v-4
		c0-8.1-4.3-12.4-12.6-12.4c-5.9,0-11.1,2.2-14.6,5.5l-1.4-1.9c3.9-3.7,9.9-6,16.1-6C119.3,121.9,124.6,127,124.6,136.7z M122,151.4
		v-8.5h-14.9c-8.9,0-12.3,3.8-12.3,8.9c0,5.8,4.6,9.5,12.2,9.5C114.6,161.3,119.5,157.7,122,151.4z"/>
	<path d="M161.1,160.6c-2,1.9-5.2,2.8-8.2,2.8c-6.8,0-10.4-4.1-10.4-10.5v-28.4h-7.7v-2.3h7.7v-9h2.6v9h13.5v2.3H145v28
		c0,5.5,2.8,8.6,8.1,8.6c2.5,0,4.9-0.9,6.6-2.4L161.1,160.6z"/>
	<path d="M171.3,109c0-1.4,1.2-2.6,2.6-2.6s2.6,1.2,2.6,2.5c0,1.4-1.2,2.6-2.6,2.6S171.3,110.3,171.3,109z M172.7,122.2h2.6v41h-2.6
		V122.2z"/>
	<path d="M186.5,158l1.3-2.1c3.1,2.8,8.6,5.2,15,5.2c9.2,0,13-3.5,13-8.5c0-13-27.7-3.8-27.7-19.8c0-5.8,4.7-10.9,15-10.9
		c5.1,0,10.6,1.7,13.7,4.2l-1.3,2.1c-3.3-2.6-8-3.9-12.5-3.9c-8.5,0-12.2,3.7-12.2,8.5c0,13.4,27.6,4.3,27.6,19.9
		c0,6.4-5.3,10.8-15.6,10.8C196,163.5,189.7,161.2,186.5,158z"/>
	<path d="M249.3,160.6c-2,1.9-5.2,2.8-8.2,2.8c-6.8,0-10.4-4.1-10.4-10.5v-28.4h-7.7v-2.3h7.7v-9h2.6v9h13.5v2.3h-13.5v28
		c0,5.5,2.8,8.6,8.1,8.6c2.5,0,4.9-0.9,6.6-2.4L249.3,160.6z"/>
	<path d="M259.6,109c0-1.4,1.2-2.6,2.6-2.6s2.6,1.2,2.6,2.5c0,1.4-1.2,2.6-2.6,2.6S259.6,110.3,259.6,109z M260.9,122.2h2.6v41h-2.6
		V122.2z"/>
	<path d="M276.4,142.7c0-12.2,8.6-20.8,20.4-20.8c6.2,0,11.7,2.4,15.2,7l-2,1.7c-3.1-4.3-7.9-6.2-13.2-6.2
		c-10.2,0-17.8,7.4-17.8,18.3c0,11,7.6,18.4,17.8,18.4c5.3,0,10.1-2,13.2-6.2l2,1.6c-3.5,4.7-9,7-15.2,7
		C285,163.5,276.4,154.9,276.4,142.7z"/>
	<path d="M318.1,158l1.3-2.1c3.1,2.8,8.6,5.2,15,5.2c9.2,0,13-3.5,13-8.5c0-13-27.7-3.8-27.7-19.8c0-5.8,4.7-10.9,15-10.9
		c5.1,0,10.6,1.7,13.7,4.2l-1.3,2.1c-3.3-2.6-8-3.9-12.5-3.9c-8.5,0-12.2,3.7-12.2,8.5c0,13.4,27.6,4.3,27.6,19.9
		c0,6.4-5.3,10.8-15.6,10.8C327.6,163.5,321.3,161.2,318.1,158z"/>
	<path d="M380.2,109c0-1.4,1.2-2.6,2.6-2.6s2.6,1.2,2.6,2.5c0,1.4-1.2,2.6-2.6,2.6S380.2,110.3,380.2,109z M381.5,122.2h2.6v41h-2.6
		V122.2z"/>
	<path d="M437.6,139.1v24.1h-2.6v-23.9c0-9.8-5.2-14.9-14.1-14.9c-10.3,0-16.5,6.6-16.5,16.7v22.1h-2.6v-41h2.5v10
		c2.6-6.3,8.5-10.3,16.8-10.3C431.1,121.9,437.6,127.8,437.6,139.1z"/>
	<path d="M494,160.6c-2,1.9-5.2,2.8-8.2,2.8c-6.8,0-10.4-4.1-10.4-10.5v-28.4h-7.7v-2.3h7.7v-9h2.6v9h13.5v2.3h-13.5v28
		c0,5.5,2.8,8.6,8.1,8.6c2.5,0,4.9-0.9,6.6-2.4L494,160.6z"/>
	<path d="M541.4,139.1v24.1h-2.6v-23.9c0-9.8-5.2-14.9-14.1-14.9c-10.3,0-16.5,6.6-16.5,16.7v22.1h-2.6v-58.6h2.6V132
		c2.7-6.2,8.5-10.1,16.7-10.1C535,121.9,541.4,127.8,541.4,139.1z"/>
	<path d="M592.4,143.1h-35.9c0.2,10.7,7.8,18,18.2,18c5.4,0,10.4-2,13.6-6.1l1.7,1.7c-3.7,4.4-9.2,6.7-15.2,6.7
		c-12.1,0-20.8-8.6-20.8-20.8c0-12.2,8.2-20.8,19.3-20.8c10.9,0,19.2,8.5,19.2,20.5V143.1z M556.5,140.9h33.4
		c-0.6-9.6-7.5-16.7-16.7-16.7C563.9,124.3,557.1,131.3,556.5,140.9z"/>
	<path class="st1" d="M18.2,234.7v-32h2.7v31.9c0,14.3,6.9,21.2,19,21.2c12.1,0,19-7,19-21.2v-31.9h2.6v32
		c0,15.7-8.2,23.6-21.6,23.6S18.2,250.4,18.2,234.7z"/>
	<path class="st1" d="M115.9,233.9V258h-2.6v-23.9c0-9.8-5.2-14.9-14.1-14.9c-10.3,0-16.5,6.6-16.5,16.7V258H80v-41h2.5v10
		c2.6-6.3,8.5-10.3,16.8-10.3C109.4,216.7,115.9,222.6,115.9,233.9z"/>
	<path class="st1" d="M131.6,203.8c0-1.4,1.2-2.6,2.6-2.6s2.6,1.2,2.6,2.5c0,1.4-1.2,2.6-2.6,2.6S131.6,205.1,131.6,203.8z
		 M132.9,217h2.6v41h-2.6V217z"/>
	<path class="st1" d="M172.4,255.4c-2,1.9-5.2,2.8-8.2,2.8c-6.8,0-10.4-4.1-10.4-10.5v-28.4h-7.7V217h7.7v-9h2.6v9h13.5v2.3h-13.5
		v28c0,5.5,2.8,8.6,8.1,8.6c2.5,0,4.9-0.9,6.6-2.4L172.4,255.4z"/>
	<path class="st1" d="M216.3,237.9h-35.9c0.2,10.7,7.8,18,18.2,18c5.4,0,10.4-2,13.6-6.1l1.7,1.7c-3.7,4.4-9.2,6.7-15.2,6.7
		c-12.1,0-20.8-8.6-20.8-20.8c0-12.2,8.2-20.8,19.3-20.8c10.9,0,19.2,8.5,19.2,20.5V237.9z M180.4,235.7h33.4
		c-0.6-9.6-7.5-16.7-16.7-16.7C187.8,219.1,181,226.1,180.4,235.7z"/>
	<path class="st1" d="M264.8,199.4V258h-2.5v-11.2c-3.1,7.1-9.6,11.5-17.7,11.5c-11.4,0-20.1-8.5-20.1-20.8s8.7-20.8,20.1-20.8
		c7.9,0,14.5,4.3,17.6,11.3v-28.6H264.8z M262.2,237.5c0-10.9-7.5-18.3-17.5-18.3s-17.5,7.4-17.5,18.3c0,10.9,7.5,18.4,17.5,18.4
		S262.2,248.4,262.2,237.5z"/>
	<path class="st1" d="M297.9,250.7l1.4-1.9c3.6,4,10.6,7.2,18.2,7.2c11.6,0,16.7-5.3,16.7-11.7c0-17.7-34.8-7.2-34.8-27.6
		c0-7.4,5.7-14.2,18.9-14.2c6.1,0,12.2,2,16.4,5.1l-1.2,2.1c-4.4-3.2-10.1-4.8-15.1-4.8c-11.2,0-16.4,5.4-16.4,11.8
		c0,17.8,34.8,7.5,34.8,27.6c0,7.5-5.9,14.1-19.3,14.1C309.5,258.3,301.8,255.2,297.9,250.7z"/>
	<path class="st1" d="M369.4,255.4c-2,1.9-5.2,2.8-8.2,2.8c-6.8,0-10.4-4.1-10.4-10.5v-28.4H343V217h7.7v-9h2.6v9h13.5v2.3h-13.5v28
		c0,5.5,2.8,8.6,8.1,8.6c2.5,0,4.9-0.9,6.6-2.4L369.4,255.4z"/>
	<path class="st1" d="M409.6,231.5V258h-2.5v-8.2c-2.5,5.1-7.7,8.5-15.2,8.5c-9.2,0-14.7-4.7-14.7-11.5c0-6,3.8-11.2,14.9-11.2H407
		v-4c0-8.1-4.3-12.4-12.6-12.4c-5.9,0-11.1,2.2-14.6,5.5l-1.4-1.9c3.9-3.7,9.9-6,16.1-6C404.2,216.7,409.6,221.8,409.6,231.5z
		 M407,246.2v-8.5h-14.9c-8.9,0-12.3,3.8-12.3,8.9c0,5.8,4.6,9.5,12.2,9.5C399.6,256.1,404.5,252.5,407,246.2z"/>
	<path class="st1" d="M446,255.4c-2,1.9-5.2,2.8-8.2,2.8c-6.8,0-10.4-4.1-10.4-10.5v-28.4h-7.7V217h7.7v-9h2.6v9h13.5v2.3H430v28
		c0,5.5,2.8,8.6,8.1,8.6c2.5,0,4.9-0.9,6.6-2.4L446,255.4z"/>
	<path class="st1" d="M489.9,237.9h-35.9c0.2,10.7,7.8,18,18.2,18c5.4,0,10.4-2,13.6-6.1l1.7,1.7c-3.7,4.4-9.2,6.7-15.2,6.7
		c-12.1,0-20.8-8.6-20.8-20.8c0-12.2,8.2-20.8,19.3-20.8c10.9,0,19.2,8.5,19.2,20.5V237.9z M454,235.7h33.4
		c-0.6-9.6-7.5-16.7-16.7-16.7C461.3,219.1,454.5,226.1,454,235.7z"/>
	<path class="st1" d="M496.4,252.8l1.3-2.1c3.1,2.8,8.6,5.2,15,5.2c9.2,0,13-3.5,13-8.5c0-13-27.7-3.8-27.7-19.8
		c0-5.8,4.7-10.9,15-10.9c5.1,0,10.6,1.7,13.7,4.2l-1.3,2.1c-3.3-2.6-8-3.9-12.5-3.9c-8.5,0-12.2,3.7-12.2,8.5
		c0,13.4,27.6,4.3,27.6,19.9c0,6.4-5.3,10.8-15.6,10.8C505.9,258.3,499.6,256,496.4,252.8z"/>
</g>
<rect x="1654.5" y="874.9" style="fill:none;" width="0" height="3.1"/>
</svg>
