<svg xmlns="http://www.w3.org/2000/svg" viewBox="0 0 403.97 373.38"><title>Asset 1</title><g id="Layer_2" data-name="Layer 2"><g id="Layer_1-2" data-name="Layer 1"><path d="M222.86,96.17A75.3,75.3,0,1,0,252.28,46.6,75.31,75.31,0,0,0,222.86,96.17Zm27,46.25a59.3,59.3,0,1,1,39,23.17A59.29,59.29,0,0,1,249.91,142.42Z"/><path d="M1.6,308.21l19.17,25.62A8,8,0,0,0,32,335.45l11.76-8.81L76.6,370.2a8,8,0,0,0,5.33,3.11,8.1,8.1,0,0,0,5.95-1.6l24.59-19A8,8,0,0,0,114,341.56L81.41,298.44l17-12.72,20.37,27.22a8,8,0,0,0,11.2,1.61L154.81,296a8,8,0,0,0,1.61-11.2l-20.37-27.22,92.64-69.33a107.49,107.49,0,0,0,53.73,24.09,105.65,105.65,0,0,0,78.74-20.43A106.63,106.63,0,0,0,313.47,1a4.81,4.81,0,0,0-.53-.07,107.7,107.7,0,0,0-78.89,20.46C210.92,38.74,196,63.64,192,91.53a110,110,0,0,0,8,58.24L3.21,297A8,8,0,0,0,1.6,308.21ZM19.2,305,214.79,158.66a8,8,0,0,0,2.32-10.06,93.46,93.46,0,0,1-9.32-54.79C211.2,70.15,223.93,49,243.64,34.24a91.85,91.85,0,0,1,67.52-17.37h.07a91.57,91.57,0,0,1,58.9,35.54A89.9,89.9,0,0,1,387,119.57a90.48,90.48,0,0,1-152.28,52.56,8,8,0,0,0-10.35-.66L120.06,249.54a8,8,0,0,0-1.61,11.2L138.82,288l-12,9-20.37-27.23a8,8,0,0,0-11.2-1.61L65.4,290.44l0,0a8,8,0,0,0-1.57,11.21l32.63,43.22L84.5,354.1,51.7,310.65a8,8,0,0,0-11.18-1.59l-11.73,8.78Z"/></g></g></svg>