<svg xmlns="http://www.w3.org/2000/svg" viewBox="0 0 1760.15 342.29"><defs><style>.cls-1{font-size:80px;font-family:Montserrat-ExtraLight, Montserrat;font-weight:200;}.cls-2{letter-spacing:-0.02em;}.cls-3{letter-spacing:-0.01em;}.cls-4{letter-spacing:0.01em;}.cls-5{letter-spacing:0em;}.cls-6{letter-spacing:0em;}.cls-7{fill:#0071bc;}.cls-8{letter-spacing:-0.02em;}.cls-9{opacity:0.14;}</style></defs><title>Asset 7</title><g id="Layer_2" data-name="Layer 2"><g id="Layer_1-2" data-name="Layer 1"><text class="cls-1" transform="translate(0 68.99)">Public <tspan class="cls-2" x="269.04" y="0">T</tspan><tspan class="cls-3" x="312.23" y="0">r</tspan><tspan x="342.47" y="0">anspo</tspan><tspan class="cls-4" x="582.87" y="0">r</tspan><tspan class="cls-5" x="615.11" y="0">tation </tspan><tspan x="0" y="96">Statistics in t</tspan><tspan class="cls-6" x="494.39" y="96">h</tspan><tspan x="548.07" y="96">e </tspan><tspan class="cls-7"><tspan x="0" y="192">Uni</tspan><tspan class="cls-8" x="137.44" y="192">t</tspan><tspan x="167.2" y="192">ed Sta</tspan><tspan class="cls-8" x="414.47" y="192">t</tspan><tspan x="444.24" y="192">es</tspan></tspan></text><g class="cls-9"><path d="M1294.27,0H950c-17.58,0-31.88,13.18-31.88,29.37a6.15,6.15,0,0,0,6.38,5.88H950V47c-7,0-12.75,5.3-12.75,11.78V270.25h-6.38a5.89,5.89,0,1,0,0,11.75h51a5.89,5.89,0,1,0,0-11.75h-6.37V258.5H1103v17.62a6.4,6.4,0,0,0,12.75,0V258.5h114.75v17.62a6.4,6.4,0,0,0,12.75,0V258.5h25.5v11.75h-6.38a5.89,5.89,0,1,0,0,11.75h51a5.89,5.89,0,1,0,0-11.75H1307V58.79c0-6.49-5.72-11.77-12.75-11.79V35.25h25.5a6.14,6.14,0,0,0,6.37-5.88C1326.14,13.18,1311.84,0,1294.27,0ZM962.77,270.25H950l0-211.5,12.71,0Zm267.75-23.5H1115.77V235h114.75Zm38.25,0h-25.5V235h6.37a5.89,5.89,0,1,0,0-11.75h-153a5.89,5.89,0,1,0,0,11.75H1103v11.75H975.52V182.12h293.25ZM975.52,170.37V64.62h140.25V170.37Zm293.25,0H1128.52V64.62h140.25ZM1281.52,47a13,13,0,0,0-11,5.88H973.78a13,13,0,0,0-11-5.88V35.25h318.75Zm12.75,223.25h-12.75l0-211.5,12.71,0ZM932,23.5c2.63-6.84,9.72-11.75,18-11.75h344.25c8.31,0,15.4,4.91,18,11.75Z"/><path d="M1096.64,76.38h-102a6.14,6.14,0,0,0-6.37,5.87v70.5a6.14,6.14,0,0,0,6.37,5.87h102a6.14,6.14,0,0,0,6.38-5.87V82.25A6.14,6.14,0,0,0,1096.64,76.38Zm-6.37,70.5H1001V88.12h89.25Z"/><path d="M1020.14,111.62h12.75a5.89,5.89,0,1,0,0-11.75h-12.75a5.89,5.89,0,1,0,0,11.75Z"/><path d="M1020.14,135.12h25.5a5.89,5.89,0,1,0,0-11.74h-25.5a5.89,5.89,0,1,0,0,11.74Z"/><path d="M1071.14,135.12h6.38a5.89,5.89,0,1,0,0-11.74h-6.38a5.89,5.89,0,1,0,0,11.74Z"/></g><g class="cls-9"><path d="M1532.44,193.74a5.2,5.2,0,0,1,7.23-1.71,63.1,63.1,0,0,0,16.77,7.13c1.94-10.44,6-17.62,12.07-21.36,3.84-2.36,8.47-3.08,12.88-3.19a30.58,30.58,0,0,1,5.81.4c7.91,1.36,15.87,4.26,21.92,9.78,8.12,7.39,12.55,18.49,13.2,33a5.32,5.32,0,0,1-5,5.58H1617a5.29,5.29,0,0,1-5.21-5.09c-.51-11.54-3.77-20.13-9.7-25.53a24.28,24.28,0,0,0-7.68-4.66c.13,2.82,1.29,40.68,1.29,40.68-.1,7.32-.19,14.63-.2,21.9a12.17,12.17,0,0,0,1.34,2.3c.42.65.85,1.29,1.24,1.95l11.66,19.57a7,7,0,0,1-2.28,9.5,6.56,6.56,0,0,1-3.56,1,6.75,6.75,0,0,1-5.78-3.33l-11.68-19.58c-.28-.47-.58-.92-.88-1.38-1.54-2.33-3.66-5.51-3.65-10,0-6.58.09-13.17.17-19.75-.18,0-.39-.1-.55-.1a14.24,14.24,0,0,0-2.94.33l-2,3.5c-1.76,3.08-3.67,5.87-5.53,8.57-1,1.41-1.93,2.82-2.87,4.26-1.52,2.34-2.22,4.09-2.1,5.2.25,2.2.34,4.43.42,6.65,0,1,.08,2,.13,2.93l.86,15.18a6.89,6.89,0,0,1-6.41,7.3h-.43a6.86,6.86,0,0,1-6.75-6.52l-.85-15.19c-.06-1.05-.1-2.11-.13-3.18-.08-1.87-.14-3.75-.35-5.62-.66-6,2.11-11.07,4.26-14.38,1-1.54,2-3.06,3.08-4.57,1.77-2.57,3.44-5,4.9-7.58l1.78-3.11a15.76,15.76,0,0,0,.57-2c.2-8,1.27-21.66,2-29.67a40.68,40.68,0,0,0-2.92,11.32,6.38,6.38,0,0,1-3.66,5,9,9,0,0,1-4,.76c-8.43,0-21.74-7.27-24.48-9A5.38,5.38,0,0,1,1532.44,193.74Zm64.5-35.59a14.82,14.82,0,1,0-14.89,15A14.94,14.94,0,0,0,1596.94,158.15Zm11.7,64.67,3.22-1.43c2.94-1.36,9.32-4.63,9.27-4.11l7.51-3.34,3.71,8.46,6.9-3.06,10.89,24.87L1616,259.37l-10.9-24.87,7.23-3.22Zm8.94,5.73,9.25-4.1-1.19-2.71-9.25,4.11Z"/></g><g class="cls-9"><ellipse cx="1465.98" cy="159.21" rx="15.26" ry="14.59"/><path d="M1496.34,260.47a42,42,0,0,0,7.8-5.2l-20-37.71L1482,187.34c-.41-5.51-4.63-9.47-11.18-9.26-1.19,0-3.56.23-4.74.32a12.39,12.39,0,0,0-6.3,2.29c-8.26,6.28-32.84,23.68-32.84,23.68a6.32,6.32,0,0,0-1.33,9.12,7,7,0,0,0,9.53,1.27l22-15.85,1.39,18.55c-2.37,5.41-14.33,41.61-14.33,41.61a66,66,0,0,0,7.69,2.88l-5.12,13.56a6.44,6.44,0,0,0,4.14,8.31,6.91,6.91,0,0,0,8.69-4l5.6-14.91a59.94,59.94,0,0,0,18.3-.2l6.45,15.32a6.9,6.9,0,0,0,8.8,3.72,6.43,6.43,0,0,0,3.89-8.41Z"/><ellipse cx="1392.79" cy="280.01" rx="4.39" ry="4.2"/><ellipse cx="1379.86" cy="280.02" rx="4.39" ry="4.2"/><path d="M1377.27,260.52c.59,0,10.19.8,10.78.86,3.91.4,5.11-1.91,5.89-3.13,2.7-4.28,10.82-17.11,10.82-17.11,1.26-2,3.87-7-1.32-9.08-2-.81-5.25-.2-7.65.4l-19.32,4.74a4.4,4.4,0,0,0-3.34,5.37,4.61,4.61,0,0,0,4.48,3.32,4.46,4.46,0,0,0,1.14-.15l9.07-2.22-5.3,8.44c-10.46-.87-17.67,0-22.83,13.55a4.35,4.35,0,0,0,2.75,5.65,4.87,4.87,0,0,0,1.59.27,4.63,4.63,0,0,0,4.34-2.9C1371.46,260.15,1374.71,260.46,1377.27,260.52Z"/><ellipse cx="1405.93" cy="221.18" rx="9.42" ry="9.01"/><path d="M1425.26,221.3a4.76,4.76,0,0,0-6.32,1.61l-23.24,38.37a5.83,5.83,0,0,1-5.46,2.74l-13.18-1h0a4.42,4.42,0,1,0,0,8.84l14.29,1a12.64,12.64,0,0,0,11.7-5.92l23.94-39.58A4.33,4.33,0,0,0,1425.26,221.3Z"/></g><g class="cls-9"><path d="M1737.74,162.47a13.39,13.39,0,0,0,4.71-10,14.61,14.61,0,0,0-3.84-10.38,13.88,13.88,0,0,0-10-4.79,13.61,13.61,0,0,0-10.41,3.78,14.36,14.36,0,0,0-4.71,10,14.42,14.42,0,0,0,13.66,15.16A14.17,14.17,0,0,0,1737.74,162.47Z"/><path d="M1685.63,207.79a5.58,5.58,0,0,0,1.43,3.89,4.73,4.73,0,0,0,3.61,1.77,9.91,9.91,0,0,0,2.44-.56l18.16-9.76a5.57,5.57,0,0,0,1.56-1.5l5.35-8.2,1.66,20.67-19.64,62.69a2.35,2.35,0,0,1-.17.77,2.7,2.7,0,0,0-.17.77,7.77,7.77,0,0,0,2.16,5.74,7.23,7.23,0,0,0,5.26,2.43q5.46.44,7.72-5.06l14.08-45.27,1.21,13.89a2.83,2.83,0,0,0,.28,1.24c.19.41.38.88.58,1.4a3.64,3.64,0,0,1,.28,1.08L1743.54,283a7,7,0,0,0,6.59,4.46,6.66,6.66,0,0,0,5.67-1.88,7.8,7.8,0,0,0,2.41-5.64,11.21,11.21,0,0,0-.53-3.4l-11.26-27.05L1741,192.71l7.13,7.55,1.67,20.36a6.73,6.73,0,0,0,1.6,3.43,4.47,4.47,0,0,0,3.46,1.61,4.93,4.93,0,0,0,3.68-1.46,5,5,0,0,0,1.6-3.66v-.61l-2.2-23.76a6.93,6.93,0,0,0-1.15-2.8l-20.2-21.7a11.14,11.14,0,0,0-7.52-3.56,12,12,0,0,0-9.83,4.71l-14.18,21.86-16.92,8.86A4.84,4.84,0,0,0,1685.63,207.79Z"/></g></g></g></svg>